0
SECTION
2
HEADER
9
$ACADVER
1
AC1006
0
ENDSEC
0
SECTION
2
TABLES
0
TABLE
2
LAYER
70
9
0
LAYER
70
0
62
1
6
CONTINUOUS
2
L1D1
0
LAYER
70
0
62
2
6
CONTINUOUS
2
L3D1
0
LAYER
70
0
62
3
6
CONTINUOUS
2
L4D1
0
LAYER
70
0
62
4
6
CONTINUOUS
2
L5D1
0
LAYER
70
0
62
5
6
CONTINUOUS
2
L8D1
0
LAYER
70
0
62
6
6
CONTINUOUS
2
L7D1
0
LAYER
70
0
62
7
6
CONTINUOUS
2
L9D1
0
LAYER
70
0
62
8
6
CONTINUOUS
2
L10D0
0
LAYER
70
0
62
9
6
CONTINUOUS
2
L11D0
0
ENDTAB
0
ENDSEC
0
SECTION
2
BLOCKS
0
ENDSEC
0
SECTION
2
ENTITIES
0
POLYLINE
8
L1D1
70
1
40
0
41
0
66
1
0
VERTEX
8
L1D1
10
0
20
-1.25
0
VERTEX
8
L1D1
10
-20
20
-0.1
0
VERTEX
8
L1D1
10
-38
20
-0.1
0
VERTEX
8
L1D1
10
-38
20
0.1
0
VERTEX
8
L1D1
10
-20
20
0.1
0
VERTEX
8
L1D1
10
0
20
1.25
0
VERTEX
8
L1D1
10
80
20
1.25
0
VERTEX
8
L1D1
10
100
20
0.1
0
VERTEX
8
L1D1
10
118
20
0.1
0
VERTEX
8
L1D1
10
118
20
-0.1
0
VERTEX
8
L1D1
10
100
20
-0.1
0
VERTEX
8
L1D1
10
80
20
-1.25
0
SEQEND
0
POLYLINE
8
L3D1
70
1
40
0
41
0
66
1
0
VERTEX
8
L3D1
10
-20
20
-0.75
0
VERTEX
8
L3D1
10
-80
20
-0.1
0
VERTEX
8
L3D1
10
-80.01
20
-0.1
0
VERTEX
8
L3D1
10
-80.01
20
-0.099
0
VERTEX
8
L3D1
10
-80.017
20
-0.099
0
VERTEX
8
L3D1
10
-80.017
20
-0.098
0
VERTEX
8
L3D1
10
-80.022
20
-0.098
0
VERTEX
8
L3D1
10
-80.022
20
-0.097
0
VERTEX
8
L3D1
10
-80.026
20
-0.097
0
VERTEX
8
L3D1
10
-80.027
20
-0.096
0
VERTEX
8
L3D1
10
-80.029
20
-0.096
0
VERTEX
8
L3D1
10
-80.03
20
-0.095
0
VERTEX
8
L3D1
10
-80.033
20
-0.095
0
VERTEX
8
L3D1
10
-80.033
20
-0.094
0
VERTEX
8
L3D1
10
-80.035
20
-0.094
0
VERTEX
8
L3D1
10
-80.036
20
-0.093
0
VERTEX
8
L3D1
10
-80.037
20
-0.093
0
VERTEX
8
L3D1
10
-80.038
20
-0.092
0
VERTEX
8
L3D1
10
-80.04
20
-0.092
0
VERTEX
8
L3D1
10
-80.041
20
-0.091
0
VERTEX
8
L3D1
10
-80.042
20
-0.091
0
VERTEX
8
L3D1
10
-80.043
20
-0.09
0
VERTEX
8
L3D1
10
-80.044
20
-0.09
0
VERTEX
8
L3D1
10
-80.045
20
-0.089
0
VERTEX
8
L3D1
10
-80.046
20
-0.089
0
VERTEX
8
L3D1
10
-80.047
20
-0.088
0
VERTEX
8
L3D1
10
-80.048
20
-0.088
0
VERTEX
8
L3D1
10
-80.048
20
-0.087
0
VERTEX
8
L3D1
10
-80.05
20
-0.087
0
VERTEX
8
L3D1
10
-80.051
20
-0.086
0
VERTEX
8
L3D1
10
-80.052
20
-0.086
0
VERTEX
8
L3D1
10
-80.052
20
-0.085
0
VERTEX
8
L3D1
10
-80.053
20
-0.085
0
VERTEX
8
L3D1
10
-80.055
20
-0.083
0
VERTEX
8
L3D1
10
-80.056
20
-0.083
0
VERTEX
8
L3D1
10
-80.058
20
-0.081
0
VERTEX
8
L3D1
10
-80.059
20
-0.081
0
VERTEX
8
L3D1
10
-80.059
20
-0.08
0
VERTEX
8
L3D1
10
-80.06
20
-0.08
0
VERTEX
8
L3D1
10
-80.061
20
-0.079
0
VERTEX
8
L3D1
10
-80.062
20
-0.079
0
VERTEX
8
L3D1
10
-80.062
20
-0.078
0
VERTEX
8
L3D1
10
-80.063
20
-0.078
0
VERTEX
8
L3D1
10
-80.067
20
-0.074
0
VERTEX
8
L3D1
10
-80.068
20
-0.074
0
VERTEX
8
L3D1
10
-80.068
20
-0.073
0
VERTEX
8
L3D1
10
-80.069
20
-0.073
0
VERTEX
8
L3D1
10
-80.069
20
-0.072
0
VERTEX
8
L3D1
10
-80.07
20
-0.071
0
VERTEX
8
L3D1
10
-80.071
20
-0.071
0
VERTEX
8
L3D1
10
-80.071
20
-0.07
0
VERTEX
8
L3D1
10
-80.072
20
-0.069
0
VERTEX
8
L3D1
10
-80.073
20
-0.069
0
VERTEX
8
L3D1
10
-80.073
20
-0.068
0
VERTEX
8
L3D1
10
-80.074
20
-0.068
0
VERTEX
8
L3D1
10
-80.074
20
-0.067
0
VERTEX
8
L3D1
10
-80.078
20
-0.063
0
VERTEX
8
L3D1
10
-80.078
20
-0.062
0
VERTEX
8
L3D1
10
-80.079
20
-0.062
0
VERTEX
8
L3D1
10
-80.079
20
-0.061
0
VERTEX
8
L3D1
10
-80.08
20
-0.06
0
VERTEX
8
L3D1
10
-80.08
20
-0.059
0
VERTEX
8
L3D1
10
-80.081
20
-0.059
0
VERTEX
8
L3D1
10
-80.081
20
-0.058
0
VERTEX
8
L3D1
10
-80.083
20
-0.056
0
VERTEX
8
L3D1
10
-80.083
20
-0.055
0
VERTEX
8
L3D1
10
-80.085
20
-0.053
0
VERTEX
8
L3D1
10
-80.085
20
-0.052
0
VERTEX
8
L3D1
10
-80.086
20
-0.052
0
VERTEX
8
L3D1
10
-80.086
20
-0.051
0
VERTEX
8
L3D1
10
-80.087
20
-0.05
0
VERTEX
8
L3D1
10
-80.087
20
-0.048
0
VERTEX
8
L3D1
10
-80.088
20
-0.048
0
VERTEX
8
L3D1
10
-80.088
20
-0.047
0
VERTEX
8
L3D1
10
-80.089
20
-0.046
0
VERTEX
8
L3D1
10
-80.089
20
-0.045
0
VERTEX
8
L3D1
10
-80.09
20
-0.044
0
VERTEX
8
L3D1
10
-80.09
20
-0.043
0
VERTEX
8
L3D1
10
-80.091
20
-0.042
0
VERTEX
8
L3D1
10
-80.091
20
-0.041
0
VERTEX
8
L3D1
10
-80.092
20
-0.04
0
VERTEX
8
L3D1
10
-80.092
20
-0.038
0
VERTEX
8
L3D1
10
-80.093
20
-0.037
0
VERTEX
8
L3D1
10
-80.093
20
-0.036
0
VERTEX
8
L3D1
10
-80.094
20
-0.035
0
VERTEX
8
L3D1
10
-80.094
20
-0.033
0
VERTEX
8
L3D1
10
-80.095
20
-0.033
0
VERTEX
8
L3D1
10
-80.095
20
-0.03
0
VERTEX
8
L3D1
10
-80.096
20
-0.029
0
VERTEX
8
L3D1
10
-80.096
20
-0.027
0
VERTEX
8
L3D1
10
-80.097
20
-0.026
0
VERTEX
8
L3D1
10
-80.097
20
-0.022
0
VERTEX
8
L3D1
10
-80.098
20
-0.022
0
VERTEX
8
L3D1
10
-80.098
20
-0.017
0
VERTEX
8
L3D1
10
-80.099
20
-0.017
0
VERTEX
8
L3D1
10
-80.099
20
-0.01
0
VERTEX
8
L3D1
10
-80.1
20
-0.01
0
VERTEX
8
L3D1
10
-80.1
20
0.01
0
VERTEX
8
L3D1
10
-80.099
20
0.01
0
VERTEX
8
L3D1
10
-80.099
20
0.017
0
VERTEX
8
L3D1
10
-80.098
20
0.017
0
VERTEX
8
L3D1
10
-80.098
20
0.022
0
VERTEX
8
L3D1
10
-80.097
20
0.022
0
VERTEX
8
L3D1
10
-80.097
20
0.026
0
VERTEX
8
L3D1
10
-80.096
20
0.027
0
VERTEX
8
L3D1
10
-80.096
20
0.029
0
VERTEX
8
L3D1
10
-80.095
20
0.03
0
VERTEX
8
L3D1
10
-80.095
20
0.033
0
VERTEX
8
L3D1
10
-80.094
20
0.033
0
VERTEX
8
L3D1
10
-80.094
20
0.035
0
VERTEX
8
L3D1
10
-80.093
20
0.036
0
VERTEX
8
L3D1
10
-80.093
20
0.037
0
VERTEX
8
L3D1
10
-80.092
20
0.038
0
VERTEX
8
L3D1
10
-80.092
20
0.04
0
VERTEX
8
L3D1
10
-80.091
20
0.041
0
VERTEX
8
L3D1
10
-80.091
20
0.042
0
VERTEX
8
L3D1
10
-80.09
20
0.043
0
VERTEX
8
L3D1
10
-80.09
20
0.044
0
VERTEX
8
L3D1
10
-80.089
20
0.045
0
VERTEX
8
L3D1
10
-80.089
20
0.046
0
VERTEX
8
L3D1
10
-80.088
20
0.047
0
VERTEX
8
L3D1
10
-80.088
20
0.048
0
VERTEX
8
L3D1
10
-80.087
20
0.048
0
VERTEX
8
L3D1
10
-80.087
20
0.05
0
VERTEX
8
L3D1
10
-80.086
20
0.051
0
VERTEX
8
L3D1
10
-80.086
20
0.052
0
VERTEX
8
L3D1
10
-80.085
20
0.052
0
VERTEX
8
L3D1
10
-80.085
20
0.053
0
VERTEX
8
L3D1
10
-80.083
20
0.055
0
VERTEX
8
L3D1
10
-80.083
20
0.056
0
VERTEX
8
L3D1
10
-80.081
20
0.058
0
VERTEX
8
L3D1
10
-80.081
20
0.059
0
VERTEX
8
L3D1
10
-80.08
20
0.059
0
VERTEX
8
L3D1
10
-80.08
20
0.06
0
VERTEX
8
L3D1
10
-80.079
20
0.061
0
VERTEX
8
L3D1
10
-80.079
20
0.062
0
VERTEX
8
L3D1
10
-80.078
20
0.062
0
VERTEX
8
L3D1
10
-80.078
20
0.063
0
VERTEX
8
L3D1
10
-80.074
20
0.067
0
VERTEX
8
L3D1
10
-80.074
20
0.068
0
VERTEX
8
L3D1
10
-80.073
20
0.068
0
VERTEX
8
L3D1
10
-80.073
20
0.069
0
VERTEX
8
L3D1
10
-80.072
20
0.069
0
VERTEX
8
L3D1
10
-80.071
20
0.07
0
VERTEX
8
L3D1
10
-80.071
20
0.071
0
VERTEX
8
L3D1
10
-80.07
20
0.071
0
VERTEX
8
L3D1
10
-80.069
20
0.072
0
VERTEX
8
L3D1
10
-80.069
20
0.073
0
VERTEX
8
L3D1
10
-80.068
20
0.073
0
VERTEX
8
L3D1
10
-80.068
20
0.074
0
VERTEX
8
L3D1
10
-80.067
20
0.074
0
VERTEX
8
L3D1
10
-80.063
20
0.078
0
VERTEX
8
L3D1
10
-80.062
20
0.078
0
VERTEX
8
L3D1
10
-80.062
20
0.079
0
VERTEX
8
L3D1
10
-80.061
20
0.079
0
VERTEX
8
L3D1
10
-80.06
20
0.08
0
VERTEX
8
L3D1
10
-80.059
20
0.08
0
VERTEX
8
L3D1
10
-80.059
20
0.081
0
VERTEX
8
L3D1
10
-80.058
20
0.081
0
VERTEX
8
L3D1
10
-80.056
20
0.083
0
VERTEX
8
L3D1
10
-80.055
20
0.083
0
VERTEX
8
L3D1
10
-80.053
20
0.085
0
VERTEX
8
L3D1
10
-80.052
20
0.085
0
VERTEX
8
L3D1
10
-80.052
20
0.086
0
VERTEX
8
L3D1
10
-80.051
20
0.086
0
VERTEX
8
L3D1
10
-80.05
20
0.087
0
VERTEX
8
L3D1
10
-80.048
20
0.087
0
VERTEX
8
L3D1
10
-80.048
20
0.088
0
VERTEX
8
L3D1
10
-80.047
20
0.088
0
VERTEX
8
L3D1
10
-80.046
20
0.089
0
VERTEX
8
L3D1
10
-80.045
20
0.089
0
VERTEX
8
L3D1
10
-80.044
20
0.09
0
VERTEX
8
L3D1
10
-80.043
20
0.09
0
VERTEX
8
L3D1
10
-80.042
20
0.091
0
VERTEX
8
L3D1
10
-80.041
20
0.091
0
VERTEX
8
L3D1
10
-80.04
20
0.092
0
VERTEX
8
L3D1
10
-80.038
20
0.092
0
VERTEX
8
L3D1
10
-80.037
20
0.093
0
VERTEX
8
L3D1
10
-80.036
20
0.093
0
VERTEX
8
L3D1
10
-80.035
20
0.094
0
VERTEX
8
L3D1
10
-80.033
20
0.094
0
VERTEX
8
L3D1
10
-80.033
20
0.095
0
VERTEX
8
L3D1
10
-80.03
20
0.095
0
VERTEX
8
L3D1
10
-80.029
20
0.096
0
VERTEX
8
L3D1
10
-80.027
20
0.096
0
VERTEX
8
L3D1
10
-80.026
20
0.097
0
VERTEX
8
L3D1
10
-80.022
20
0.097
0
VERTEX
8
L3D1
10
-80.022
20
0.098
0
VERTEX
8
L3D1
10
-80.017
20
0.098
0
VERTEX
8
L3D1
10
-80.017
20
0.099
0
VERTEX
8
L3D1
10
-80.01
20
0.099
0
VERTEX
8
L3D1
10
-80.01
20
0.1
0
VERTEX
8
L3D1
10
-80
20
0.1
0
VERTEX
8
L3D1
10
-20
20
0.75
0
VERTEX
8
L3D1
10
100
20
0.75
0
VERTEX
8
L3D1
10
160
20
0.1
0
VERTEX
8
L3D1
10
160.01
20
0.1
0
VERTEX
8
L3D1
10
160.01
20
0.099
0
VERTEX
8
L3D1
10
160.017
20
0.099
0
VERTEX
8
L3D1
10
160.017
20
0.098
0
VERTEX
8
L3D1
10
160.022
20
0.098
0
VERTEX
8
L3D1
10
160.022
20
0.097
0
VERTEX
8
L3D1
10
160.026
20
0.097
0
VERTEX
8
L3D1
10
160.027
20
0.096
0
VERTEX
8
L3D1
10
160.029
20
0.096
0
VERTEX
8
L3D1
10
160.03
20
0.095
0
VERTEX
8
L3D1
10
160.033
20
0.095
0
VERTEX
8
L3D1
10
160.033
20
0.094
0
VERTEX
8
L3D1
10
160.035
20
0.094
0
VERTEX
8
L3D1
10
160.036
20
0.093
0
VERTEX
8
L3D1
10
160.037
20
0.093
0
VERTEX
8
L3D1
10
160.038
20
0.092
0
VERTEX
8
L3D1
10
160.04
20
0.092
0
VERTEX
8
L3D1
10
160.041
20
0.091
0
VERTEX
8
L3D1
10
160.042
20
0.091
0
VERTEX
8
L3D1
10
160.043
20
0.09
0
VERTEX
8
L3D1
10
160.044
20
0.09
0
VERTEX
8
L3D1
10
160.045
20
0.089
0
VERTEX
8
L3D1
10
160.046
20
0.089
0
VERTEX
8
L3D1
10
160.047
20
0.088
0
VERTEX
8
L3D1
10
160.048
20
0.088
0
VERTEX
8
L3D1
10
160.048
20
0.087
0
VERTEX
8
L3D1
10
160.05
20
0.087
0
VERTEX
8
L3D1
10
160.051
20
0.086
0
VERTEX
8
L3D1
10
160.052
20
0.086
0
VERTEX
8
L3D1
10
160.052
20
0.085
0
VERTEX
8
L3D1
10
160.053
20
0.085
0
VERTEX
8
L3D1
10
160.055
20
0.083
0
VERTEX
8
L3D1
10
160.056
20
0.083
0
VERTEX
8
L3D1
10
160.058
20
0.081
0
VERTEX
8
L3D1
10
160.059
20
0.081
0
VERTEX
8
L3D1
10
160.059
20
0.08
0
VERTEX
8
L3D1
10
160.06
20
0.08
0
VERTEX
8
L3D1
10
160.061
20
0.079
0
VERTEX
8
L3D1
10
160.062
20
0.079
0
VERTEX
8
L3D1
10
160.062
20
0.078
0
VERTEX
8
L3D1
10
160.063
20
0.078
0
VERTEX
8
L3D1
10
160.067
20
0.074
0
VERTEX
8
L3D1
10
160.068
20
0.074
0
VERTEX
8
L3D1
10
160.068
20
0.073
0
VERTEX
8
L3D1
10
160.069
20
0.073
0
VERTEX
8
L3D1
10
160.069
20
0.072
0
VERTEX
8
L3D1
10
160.07
20
0.071
0
VERTEX
8
L3D1
10
160.071
20
0.071
0
VERTEX
8
L3D1
10
160.071
20
0.07
0
VERTEX
8
L3D1
10
160.072
20
0.069
0
VERTEX
8
L3D1
10
160.073
20
0.069
0
VERTEX
8
L3D1
10
160.073
20
0.068
0
VERTEX
8
L3D1
10
160.074
20
0.068
0
VERTEX
8
L3D1
10
160.074
20
0.067
0
VERTEX
8
L3D1
10
160.078
20
0.063
0
VERTEX
8
L3D1
10
160.078
20
0.062
0
VERTEX
8
L3D1
10
160.079
20
0.062
0
VERTEX
8
L3D1
10
160.079
20
0.061
0
VERTEX
8
L3D1
10
160.08
20
0.06
0
VERTEX
8
L3D1
10
160.08
20
0.059
0
VERTEX
8
L3D1
10
160.081
20
0.059
0
VERTEX
8
L3D1
10
160.081
20
0.058
0
VERTEX
8
L3D1
10
160.083
20
0.056
0
VERTEX
8
L3D1
10
160.083
20
0.055
0
VERTEX
8
L3D1
10
160.085
20
0.053
0
VERTEX
8
L3D1
10
160.085
20
0.052
0
VERTEX
8
L3D1
10
160.086
20
0.052
0
VERTEX
8
L3D1
10
160.086
20
0.051
0
VERTEX
8
L3D1
10
160.087
20
0.05
0
VERTEX
8
L3D1
10
160.087
20
0.048
0
VERTEX
8
L3D1
10
160.088
20
0.048
0
VERTEX
8
L3D1
10
160.088
20
0.047
0
VERTEX
8
L3D1
10
160.089
20
0.046
0
VERTEX
8
L3D1
10
160.089
20
0.045
0
VERTEX
8
L3D1
10
160.09
20
0.044
0
VERTEX
8
L3D1
10
160.09
20
0.043
0
VERTEX
8
L3D1
10
160.091
20
0.042
0
VERTEX
8
L3D1
10
160.091
20
0.041
0
VERTEX
8
L3D1
10
160.092
20
0.04
0
VERTEX
8
L3D1
10
160.092
20
0.038
0
VERTEX
8
L3D1
10
160.093
20
0.037
0
VERTEX
8
L3D1
10
160.093
20
0.036
0
VERTEX
8
L3D1
10
160.094
20
0.035
0
VERTEX
8
L3D1
10
160.094
20
0.033
0
VERTEX
8
L3D1
10
160.095
20
0.033
0
VERTEX
8
L3D1
10
160.095
20
0.03
0
VERTEX
8
L3D1
10
160.096
20
0.029
0
VERTEX
8
L3D1
10
160.096
20
0.027
0
VERTEX
8
L3D1
10
160.097
20
0.026
0
VERTEX
8
L3D1
10
160.097
20
0.022
0
VERTEX
8
L3D1
10
160.098
20
0.022
0
VERTEX
8
L3D1
10
160.098
20
0.017
0
VERTEX
8
L3D1
10
160.099
20
0.017
0
VERTEX
8
L3D1
10
160.099
20
0.01
0
VERTEX
8
L3D1
10
160.1
20
0.01
0
VERTEX
8
L3D1
10
160.1
20
-0.01
0
VERTEX
8
L3D1
10
160.099
20
-0.01
0
VERTEX
8
L3D1
10
160.099
20
-0.017
0
VERTEX
8
L3D1
10
160.098
20
-0.017
0
VERTEX
8
L3D1
10
160.098
20
-0.022
0
VERTEX
8
L3D1
10
160.097
20
-0.022
0
VERTEX
8
L3D1
10
160.097
20
-0.026
0
VERTEX
8
L3D1
10
160.096
20
-0.027
0
VERTEX
8
L3D1
10
160.096
20
-0.029
0
VERTEX
8
L3D1
10
160.095
20
-0.03
0
VERTEX
8
L3D1
10
160.095
20
-0.033
0
VERTEX
8
L3D1
10
160.094
20
-0.033
0
VERTEX
8
L3D1
10
160.094
20
-0.035
0
VERTEX
8
L3D1
10
160.093
20
-0.036
0
VERTEX
8
L3D1
10
160.093
20
-0.037
0
VERTEX
8
L3D1
10
160.092
20
-0.038
0
VERTEX
8
L3D1
10
160.092
20
-0.04
0
VERTEX
8
L3D1
10
160.091
20
-0.041
0
VERTEX
8
L3D1
10
160.091
20
-0.042
0
VERTEX
8
L3D1
10
160.09
20
-0.043
0
VERTEX
8
L3D1
10
160.09
20
-0.044
0
VERTEX
8
L3D1
10
160.089
20
-0.045
0
VERTEX
8
L3D1
10
160.089
20
-0.046
0
VERTEX
8
L3D1
10
160.088
20
-0.047
0
VERTEX
8
L3D1
10
160.088
20
-0.048
0
VERTEX
8
L3D1
10
160.087
20
-0.048
0
VERTEX
8
L3D1
10
160.087
20
-0.05
0
VERTEX
8
L3D1
10
160.086
20
-0.051
0
VERTEX
8
L3D1
10
160.086
20
-0.052
0
VERTEX
8
L3D1
10
160.085
20
-0.052
0
VERTEX
8
L3D1
10
160.085
20
-0.053
0
VERTEX
8
L3D1
10
160.083
20
-0.055
0
VERTEX
8
L3D1
10
160.083
20
-0.056
0
VERTEX
8
L3D1
10
160.081
20
-0.058
0
VERTEX
8
L3D1
10
160.081
20
-0.059
0
VERTEX
8
L3D1
10
160.08
20
-0.059
0
VERTEX
8
L3D1
10
160.08
20
-0.06
0
VERTEX
8
L3D1
10
160.079
20
-0.061
0
VERTEX
8
L3D1
10
160.079
20
-0.062
0
VERTEX
8
L3D1
10
160.078
20
-0.062
0
VERTEX
8
L3D1
10
160.078
20
-0.063
0
VERTEX
8
L3D1
10
160.074
20
-0.067
0
VERTEX
8
L3D1
10
160.074
20
-0.068
0
VERTEX
8
L3D1
10
160.073
20
-0.068
0
VERTEX
8
L3D1
10
160.073
20
-0.069
0
VERTEX
8
L3D1
10
160.072
20
-0.069
0
VERTEX
8
L3D1
10
160.071
20
-0.07
0
VERTEX
8
L3D1
10
160.071
20
-0.071
0
VERTEX
8
L3D1
10
160.07
20
-0.071
0
VERTEX
8
L3D1
10
160.069
20
-0.072
0
VERTEX
8
L3D1
10
160.069
20
-0.073
0
VERTEX
8
L3D1
10
160.068
20
-0.073
0
VERTEX
8
L3D1
10
160.068
20
-0.074
0
VERTEX
8
L3D1
10
160.067
20
-0.074
0
VERTEX
8
L3D1
10
160.063
20
-0.078
0
VERTEX
8
L3D1
10
160.062
20
-0.078
0
VERTEX
8
L3D1
10
160.062
20
-0.079
0
VERTEX
8
L3D1
10
160.061
20
-0.079
0
VERTEX
8
L3D1
10
160.06
20
-0.08
0
VERTEX
8
L3D1
10
160.059
20
-0.08
0
VERTEX
8
L3D1
10
160.059
20
-0.081
0
VERTEX
8
L3D1
10
160.058
20
-0.081
0
VERTEX
8
L3D1
10
160.056
20
-0.083
0
VERTEX
8
L3D1
10
160.055
20
-0.083
0
VERTEX
8
L3D1
10
160.053
20
-0.085
0
VERTEX
8
L3D1
10
160.052
20
-0.085
0
VERTEX
8
L3D1
10
160.052
20
-0.086
0
VERTEX
8
L3D1
10
160.051
20
-0.086
0
VERTEX
8
L3D1
10
160.05
20
-0.087
0
VERTEX
8
L3D1
10
160.048
20
-0.087
0
VERTEX
8
L3D1
10
160.048
20
-0.088
0
VERTEX
8
L3D1
10
160.047
20
-0.088
0
VERTEX
8
L3D1
10
160.046
20
-0.089
0
VERTEX
8
L3D1
10
160.045
20
-0.089
0
VERTEX
8
L3D1
10
160.044
20
-0.09
0
VERTEX
8
L3D1
10
160.043
20
-0.09
0
VERTEX
8
L3D1
10
160.042
20
-0.091
0
VERTEX
8
L3D1
10
160.041
20
-0.091
0
VERTEX
8
L3D1
10
160.04
20
-0.092
0
VERTEX
8
L3D1
10
160.038
20
-0.092
0
VERTEX
8
L3D1
10
160.037
20
-0.093
0
VERTEX
8
L3D1
10
160.036
20
-0.093
0
VERTEX
8
L3D1
10
160.035
20
-0.094
0
VERTEX
8
L3D1
10
160.033
20
-0.094
0
VERTEX
8
L3D1
10
160.033
20
-0.095
0
VERTEX
8
L3D1
10
160.03
20
-0.095
0
VERTEX
8
L3D1
10
160.029
20
-0.096
0
VERTEX
8
L3D1
10
160.027
20
-0.096
0
VERTEX
8
L3D1
10
160.026
20
-0.097
0
VERTEX
8
L3D1
10
160.022
20
-0.097
0
VERTEX
8
L3D1
10
160.022
20
-0.098
0
VERTEX
8
L3D1
10
160.017
20
-0.098
0
VERTEX
8
L3D1
10
160.017
20
-0.099
0
VERTEX
8
L3D1
10
160.01
20
-0.099
0
VERTEX
8
L3D1
10
160.01
20
-0.1
0
VERTEX
8
L3D1
10
160
20
-0.1
0
VERTEX
8
L3D1
10
100
20
-0.75
0
SEQEND
0
POLYLINE
8
L4D1
70
1
40
0
41
0
66
1
0
VERTEX
8
L4D1
10
-110
20
-25
0
VERTEX
8
L4D1
10
-110
20
-7
0
VERTEX
8
L4D1
10
-80
20
-7
0
VERTEX
8
L4D1
10
-80
20
7
0
VERTEX
8
L4D1
10
-110
20
7
0
VERTEX
8
L4D1
10
-110
20
25
0
VERTEX
8
L4D1
10
190
20
25
0
VERTEX
8
L4D1
10
190
20
7
0
VERTEX
8
L4D1
10
160
20
7
0
VERTEX
8
L4D1
10
160
20
-7
0
VERTEX
8
L4D1
10
190
20
-7
0
VERTEX
8
L4D1
10
190
20
-25
0
SEQEND
0
POLYLINE
8
L5D1
70
1
40
0
41
0
66
1
0
VERTEX
8
L5D1
10
-110
20
-25
0
VERTEX
8
L5D1
10
-110
20
-7
0
VERTEX
8
L5D1
10
0
20
-7
0
VERTEX
8
L5D1
10
0
20
-4
0
VERTEX
8
L5D1
10
80
20
-4
0
VERTEX
8
L5D1
10
80
20
-7
0
VERTEX
8
L5D1
10
190
20
-7
0
VERTEX
8
L5D1
10
190
20
-25
0
SEQEND
0
POLYLINE
8
L5D1
70
1
40
0
41
0
66
1
0
VERTEX
8
L5D1
10
0
20
4
0
VERTEX
8
L5D1
10
0
20
7
0
VERTEX
8
L5D1
10
-110
20
7
0
VERTEX
8
L5D1
10
-110
20
25
0
VERTEX
8
L5D1
10
190
20
25
0
VERTEX
8
L5D1
10
190
20
7
0
VERTEX
8
L5D1
10
80
20
7
0
VERTEX
8
L5D1
10
80
20
4
0
SEQEND
0
POLYLINE
8
L8D1
70
1
40
0
41
0
66
1
0
VERTEX
8
L8D1
10
-109
20
-25
0
VERTEX
8
L8D1
10
-109
20
-7
0
VERTEX
8
L8D1
10
-89
20
-7
0
VERTEX
8
L8D1
10
-89
20
-25
0
SEQEND
0
POLYLINE
8
L8D1
70
1
40
0
41
0
66
1
0
VERTEX
8
L8D1
10
169
20
-25
0
VERTEX
8
L8D1
10
169
20
-7
0
VERTEX
8
L8D1
10
189
20
-7
0
VERTEX
8
L8D1
10
189
20
-25
0
SEQEND
0
POLYLINE
8
L8D1
70
1
40
0
41
0
66
1
0
VERTEX
8
L8D1
10
0.5
20
-0.75
0
VERTEX
8
L8D1
10
0.5
20
0.75
0
VERTEX
8
L8D1
10
79.5
20
0.75
0
VERTEX
8
L8D1
10
79.5
20
-0.75
0
SEQEND
0
POLYLINE
8
L8D1
70
1
40
0
41
0
66
1
0
VERTEX
8
L8D1
10
-109
20
7
0
VERTEX
8
L8D1
10
-109
20
25
0
VERTEX
8
L8D1
10
-89
20
25
0
VERTEX
8
L8D1
10
-89
20
7
0
SEQEND
0
POLYLINE
8
L8D1
70
1
40
0
41
0
66
1
0
VERTEX
8
L8D1
10
169
20
7
0
VERTEX
8
L8D1
10
169
20
25
0
VERTEX
8
L8D1
10
189
20
25
0
VERTEX
8
L8D1
10
189
20
7
0
SEQEND
0
POLYLINE
8
L7D1
70
1
40
0
41
0
66
1
0
VERTEX
8
L7D1
10
-108
20
-24
0
VERTEX
8
L7D1
10
-108
20
-8
0
VERTEX
8
L7D1
10
-90
20
-8
0
VERTEX
8
L7D1
10
-90
20
-24
0
SEQEND
0
POLYLINE
8
L7D1
70
1
40
0
41
0
66
1
0
VERTEX
8
L7D1
10
170
20
-24
0
VERTEX
8
L7D1
10
170
20
-8
0
VERTEX
8
L7D1
10
188
20
-8
0
VERTEX
8
L7D1
10
188
20
-24
0
SEQEND
0
POLYLINE
8
L7D1
70
1
40
0
41
0
66
1
0
VERTEX
8
L7D1
10
-108
20
8
0
VERTEX
8
L7D1
10
-108
20
24
0
VERTEX
8
L7D1
10
-90
20
24
0
VERTEX
8
L7D1
10
-90
20
8
0
SEQEND
0
POLYLINE
8
L7D1
70
1
40
0
41
0
66
1
0
VERTEX
8
L7D1
10
170
20
8
0
VERTEX
8
L7D1
10
170
20
24
0
VERTEX
8
L7D1
10
188
20
24
0
VERTEX
8
L7D1
10
188
20
8
0
SEQEND
0
POLYLINE
8
L9D1
70
1
40
0
41
0
66
1
0
VERTEX
8
L9D1
10
-110
20
-25
0
VERTEX
8
L9D1
10
-110
20
135
0
VERTEX
8
L9D1
10
-23
20
135
0
VERTEX
8
L9D1
10
-23
20
55
0
VERTEX
8
L9D1
10
-88
20
25
0
VERTEX
8
L9D1
10
-88
20
-25
0
SEQEND
0
POLYLINE
8
L9D1
70
1
40
0
41
0
66
1
0
VERTEX
8
L9D1
10
0
20
-5
0
VERTEX
8
L9D1
10
0
20
5
0
VERTEX
8
L9D1
10
35
20
5
0
VERTEX
8
L9D1
10
35
20
25
0
VERTEX
8
L9D1
10
-5
20
55
0
VERTEX
8
L9D1
10
-5
20
135
0
VERTEX
8
L9D1
10
85
20
135
0
VERTEX
8
L9D1
10
85
20
55
0
VERTEX
8
L9D1
10
45
20
25
0
VERTEX
8
L9D1
10
45
20
5
0
VERTEX
8
L9D1
10
80
20
5
0
VERTEX
8
L9D1
10
80
20
-5
0
SEQEND
0
POLYLINE
8
L9D1
70
1
40
0
41
0
66
1
0
VERTEX
8
L9D1
10
168
20
-25
0
VERTEX
8
L9D1
10
168
20
25
0
VERTEX
8
L9D1
10
103
20
55
0
VERTEX
8
L9D1
10
103
20
135
0
VERTEX
8
L9D1
10
190
20
135
0
VERTEX
8
L9D1
10
190
20
-25
0
SEQEND
0
POLYLINE
8
L10D0
70
1
40
0
41
0
66
1
0
VERTEX
8
L10D0
10
-110
20
-0.75
0
VERTEX
8
L10D0
10
-110
20
0.75
0
VERTEX
8
L10D0
10
190
20
0.75
0
VERTEX
8
L10D0
10
190
20
-0.75
0
SEQEND
0
POLYLINE
8
L11D0
70
1
40
0
41
0
66
1
0
VERTEX
8
L11D0
10
-110
20
-25
0
VERTEX
8
L11D0
10
-110
20
135
0
VERTEX
8
L11D0
10
190
20
135
0
VERTEX
8
L11D0
10
190
20
-25
0
SEQEND
0
ENDSEC
0
EOF
