  0
SECTION
  2
HEADER
  9
$ACADVER
  1
AC1009
  9
$INSBASE
 10
0.0
 20
0.0
 30
0.0
  9
$EXTMIN
 10
-110.0
 20
-25.0
 30
0.0
  9
$EXTMAX
 10
190.0
 20
135.0
 30
0.0
  9
$LIMMIN
 10
-110.0
 20
-25.0
  9
$LIMMAX
 10
190.0
 20
135.0
  9
$DIMSCALE
 40
1.0
  9
$LUNITS
 70
     2
  9
$LUPREC
 70
     9
999
LinkCAD 5.7.0 Build 4508
  0
ENDSEC
  0
SECTION
  2
TABLES
  0
TABLE
  2
VPORT
 70
     1
  0
VPORT
  2
*ACTIVE
 70
     0
 10
0.0
 20
0.0
 11
1.0
 21
1.0
 12
40.0
 22
55.0
 13
0.0
 23
0.0
 14
1.0
 24
1.0
 15
0.0
 25
0.0
 16
0.0
 26
0.0
 36
1.0
 17
0.0
 27
0.0
 37
0.0
 40
160.0
 41
1.875
 42
50.0
 43
0.0
 44
0.0
 50
0.0
 51
0.0
 71
     0
 72
   100
 73
     1
 74
     1
 75
     0
 76
     0
 77
     0
 78
     0
  0
ENDTAB
  0
TABLE
  2
LTYPE
 70
     3
  0
LTYPE
  2
BYBLOCK
 70
     0
  3

 72
    65
 73
     0
 40
0.0
  0
LTYPE
  2
BYLAYER
 70
     0
  3

 72
    65
 73
     0
 40
0.0
  0
LTYPE
  2
CONTINUOUS
 70
     0
  3
Solid line
 72
    65
 73
     0
 40
0.0
  0
ENDTAB
  0
TABLE
  2
LAYER
 70
    10
  0
LAYER
  2
0
 70
    64
 62
     7
  6
CONTINUOUS
  0
LAYER
  2
L1
 70
    64
 62
     1
  6
CONTINUOUS
  0
LAYER
  2
L3
 70
    64
 62
     3
  6
CONTINUOUS
  0
LAYER
  2
L4
 70
    64
 62
     5
  6
CONTINUOUS
  0
LAYER
  2
L5
 70
    64
 62
     2
  6
CONTINUOUS
  0
LAYER
  2
L8
 70
    64
 62
     6
  6
CONTINUOUS
  0
LAYER
  2
L7
 70
    64
 62
     4
  6
CONTINUOUS
  0
LAYER
  2
L9
 70
    64
 62
    40
  6
CONTINUOUS
  0
LAYER
  2
L10
 70
    64
 62
   220
  6
CONTINUOUS
  0
LAYER
  2
L11
 70
    64
 62
   120
  6
CONTINUOUS
  0
ENDTAB
  0
TABLE
  2
STYLE
 70
     0
  0
ENDTAB
  0
TABLE
  2
VIEW
 70
     0
  0
ENDTAB
  0
TABLE
  2
UCS
 70
     0
  0
ENDTAB
  0
TABLE
  2
APPID
 70
     1
  0
APPID
  2
ACAD
 70
     0
  0
ENDTAB
  0
TABLE
  2
DIMSTYLE
 70
     0
  0
ENDTAB
  0
ENDSEC
  0
SECTION
  2
BLOCKS
  0
ENDSEC
  0
SECTION
  2
ENTITIES
  0
SOLID
  8
L1
 10
80.0
 20
1.25
 11
0.0
 21
1.25
 12
-20.0
 22
0.1
 13
-20.0
 23
0.1
  0
SOLID
  8
L1
 10
80.0
 20
1.25
 11
-20.0
 21
0.1
 12
-20.0
 22
-0.1
 13
-20.0
 23
-0.1
  0
SOLID
  8
L1
 10
80.0
 20
1.25
 11
-20.0
 21
-0.1
 12
0.0
 22
-1.25
 13
0.0
 23
-1.25
  0
SOLID
  8
L1
 10
80.0
 20
1.25
 11
0.0
 21
-1.25
 12
80.0
 22
-1.25
 13
80.0
 23
-1.25
  0
SOLID
  8
L1
 10
80.0
 20
1.25
 11
80.0
 21
-1.25
 12
100.0
 22
-0.1
 13
100.0
 23
-0.1
  0
SOLID
  8
L1
 10
80.0
 20
1.25
 11
100.0
 21
-0.1
 12
100.0
 22
0.1
 13
100.0
 23
0.1
  0
SOLID
  8
L3
 10
-80.098
 20
0.017
 11
-80.099
 21
0.017
 12
-80.098
 22
-0.017
 13
-80.098
 23
-0.017
  0
SOLID
  8
L3
 10
-80.099
 20
0.017
 11
-80.098
 21
-0.017
 12
-80.099
 22
0.01
 13
-80.099
 23
0.01
  0
SOLID
  8
L3
 10
-80.098
 20
-0.017
 11
-80.099
 21
0.01
 12
-80.099
 22
-0.01
 13
-80.099
 23
-0.01
  0
SOLID
  8
L3
 10
-80.099
 20
0.01
 11
-80.099
 21
-0.01
 12
-80.1
 22
0.01
 13
-80.1
 23
0.01
  0
SOLID
  8
L3
 10
-80.099
 20
-0.01
 11
-80.1
 21
0.01
 12
-80.1
 22
-0.01
 13
-80.1
 23
-0.01
  0
SOLID
  8
L3
 10
-80.097
 20
-0.022
 11
-80.097
 21
-0.026
 12
-80.096
 22
-0.027
 13
-80.096
 23
-0.027
  0
SOLID
  8
L3
 10
-80.097
 20
-0.022
 11
-80.096
 21
-0.027
 12
-80.097
 22
0.022
 13
-80.097
 23
0.022
  0
SOLID
  8
L3
 10
-80.097
 20
-0.022
 11
-80.097
 21
0.022
 12
-80.098
 22
0.022
 13
-80.098
 23
0.022
  0
SOLID
  8
L3
 10
-80.097
 20
-0.022
 11
-80.098
 21
0.022
 12
-80.098
 22
0.017
 13
-80.098
 23
0.017
  0
SOLID
  8
L3
 10
-80.097
 20
-0.022
 11
-80.098
 21
0.017
 12
-80.098
 22
-0.017
 13
-80.098
 23
-0.017
  0
SOLID
  8
L3
 10
-80.097
 20
-0.022
 11
-80.098
 21
-0.017
 12
-80.098
 22
-0.022
 13
-80.098
 23
-0.022
  0
SOLID
  8
L3
 10
-80.095
 20
0.03
 11
-80.096
 21
0.029
 12
-80.095
 22
-0.03
 13
-80.095
 23
-0.03
  0
SOLID
  8
L3
 10
-80.096
 20
0.029
 11
-80.095
 21
-0.03
 12
-80.096
 22
0.027
 13
-80.096
 23
0.027
  0
SOLID
  8
L3
 10
-80.095
 20
-0.03
 11
-80.096
 21
0.027
 12
-80.096
 22
-0.027
 13
-80.096
 23
-0.027
  0
SOLID
  8
L3
 10
-80.096
 20
0.027
 11
-80.096
 21
-0.027
 12
-80.097
 22
0.026
 13
-80.097
 23
0.026
  0
SOLID
  8
L3
 10
-80.096
 20
-0.027
 11
-80.097
 21
0.026
 12
-80.097
 22
0.022
 13
-80.097
 23
0.022
  0
SOLID
  8
L3
 10
-80.094
 20
-0.033
 11
-80.094
 21
-0.035
 12
-80.093
 22
-0.036
 13
-80.093
 23
-0.036
  0
SOLID
  8
L3
 10
-80.094
 20
-0.033
 11
-80.093
 21
-0.036
 12
-80.094
 22
0.033
 13
-80.094
 23
0.033
  0
SOLID
  8
L3
 10
-80.094
 20
-0.033
 11
-80.094
 21
0.033
 12
-80.095
 22
0.033
 13
-80.095
 23
0.033
  0
SOLID
  8
L3
 10
-80.094
 20
-0.033
 11
-80.095
 21
0.033
 12
-80.095
 22
0.03
 13
-80.095
 23
0.03
  0
SOLID
  8
L3
 10
-80.094
 20
-0.033
 11
-80.095
 21
0.03
 12
-80.095
 22
-0.03
 13
-80.095
 23
-0.03
  0
SOLID
  8
L3
 10
-80.094
 20
-0.033
 11
-80.095
 21
-0.03
 12
-80.095
 22
-0.033
 13
-80.095
 23
-0.033
  0
SOLID
  8
L3
 10
-80.092
 20
0.038
 11
-80.093
 21
0.037
 12
-80.092
 22
-0.038
 13
-80.092
 23
-0.038
  0
SOLID
  8
L3
 10
-80.093
 20
0.037
 11
-80.092
 21
-0.038
 12
-80.093
 22
0.036
 13
-80.093
 23
0.036
  0
SOLID
  8
L3
 10
-80.092
 20
-0.038
 11
-80.093
 21
0.036
 12
-80.093
 22
-0.036
 13
-80.093
 23
-0.036
  0
SOLID
  8
L3
 10
-80.093
 20
0.036
 11
-80.093
 21
-0.036
 12
-80.094
 22
0.035
 13
-80.094
 23
0.035
  0
SOLID
  8
L3
 10
-80.093
 20
-0.036
 11
-80.094
 21
0.035
 12
-80.094
 22
0.033
 13
-80.094
 23
0.033
  0
SOLID
  8
L3
 10
-80.091
 20
-0.041
 11
-80.091
 21
-0.042
 12
-80.09
 22
-0.043
 13
-80.09
 23
-0.043
  0
SOLID
  8
L3
 10
-80.091
 20
-0.041
 11
-80.09
 21
-0.043
 12
-80.091
 22
0.041
 13
-80.091
 23
0.041
  0
SOLID
  8
L3
 10
-80.091
 20
-0.041
 11
-80.091
 21
0.041
 12
-80.092
 22
0.04
 13
-80.092
 23
0.04
  0
SOLID
  8
L3
 10
-80.091
 20
-0.041
 11
-80.092
 21
0.04
 12
-80.092
 22
0.038
 13
-80.092
 23
0.038
  0
SOLID
  8
L3
 10
-80.091
 20
-0.041
 11
-80.092
 21
0.038
 12
-80.092
 22
-0.038
 13
-80.092
 23
-0.038
  0
SOLID
  8
L3
 10
-80.091
 20
-0.041
 11
-80.092
 21
-0.038
 12
-80.092
 22
-0.04
 13
-80.092
 23
-0.04
  0
SOLID
  8
L3
 10
-80.089
 20
0.045
 11
-80.09
 21
0.044
 12
-80.089
 22
-0.045
 13
-80.089
 23
-0.045
  0
SOLID
  8
L3
 10
-80.09
 20
0.044
 11
-80.089
 21
-0.045
 12
-80.09
 22
0.043
 13
-80.09
 23
0.043
  0
SOLID
  8
L3
 10
-80.089
 20
-0.045
 11
-80.09
 21
0.043
 12
-80.09
 22
-0.043
 13
-80.09
 23
-0.043
  0
SOLID
  8
L3
 10
-80.09
 20
0.043
 11
-80.09
 21
-0.043
 12
-80.091
 22
0.042
 13
-80.091
 23
0.042
  0
SOLID
  8
L3
 10
-80.09
 20
-0.043
 11
-80.091
 21
0.042
 12
-80.091
 22
0.041
 13
-80.091
 23
0.041
  0
SOLID
  8
L3
 10
-80.088
 20
-0.047
 11
-80.088
 21
-0.048
 12
-80.087
 22
-0.048
 13
-80.087
 23
-0.048
  0
SOLID
  8
L3
 10
-80.088
 20
-0.047
 11
-80.087
 21
-0.048
 12
-80.088
 22
0.047
 13
-80.088
 23
0.047
  0
SOLID
  8
L3
 10
-80.088
 20
-0.047
 11
-80.088
 21
0.047
 12
-80.089
 22
0.046
 13
-80.089
 23
0.046
  0
SOLID
  8
L3
 10
-80.088
 20
-0.047
 11
-80.089
 21
0.046
 12
-80.089
 22
0.045
 13
-80.089
 23
0.045
  0
SOLID
  8
L3
 10
-80.088
 20
-0.047
 11
-80.089
 21
0.045
 12
-80.089
 22
-0.045
 13
-80.089
 23
-0.045
  0
SOLID
  8
L3
 10
-80.088
 20
-0.047
 11
-80.089
 21
-0.045
 12
-80.089
 22
-0.046
 13
-80.089
 23
-0.046
  0
SOLID
  8
L3
 10
-80.086
 20
0.051
 11
-80.087
 21
0.05
 12
-80.086
 22
-0.051
 13
-80.086
 23
-0.051
  0
SOLID
  8
L3
 10
-80.087
 20
0.05
 11
-80.086
 21
-0.051
 12
-80.087
 22
0.048
 13
-80.087
 23
0.048
  0
SOLID
  8
L3
 10
-80.086
 20
-0.051
 11
-80.087
 21
0.048
 12
-80.087
 22
-0.048
 13
-80.087
 23
-0.048
  0
SOLID
  8
L3
 10
-80.087
 20
0.048
 11
-80.087
 21
-0.048
 12
-80.088
 22
0.048
 13
-80.088
 23
0.048
  0
SOLID
  8
L3
 10
-80.087
 20
-0.048
 11
-80.088
 21
0.048
 12
-80.088
 22
0.047
 13
-80.088
 23
0.047
  0
SOLID
  8
L3
 10
-80.085
 20
-0.052
 11
-80.085
 21
-0.053
 12
-80.083
 22
-0.055
 13
-80.083
 23
-0.055
  0
SOLID
  8
L3
 10
-80.085
 20
-0.052
 11
-80.083
 21
-0.055
 12
-80.085
 22
0.052
 13
-80.085
 23
0.052
  0
SOLID
  8
L3
 10
-80.085
 20
-0.052
 11
-80.085
 21
0.052
 12
-80.086
 22
0.052
 13
-80.086
 23
0.052
  0
SOLID
  8
L3
 10
-80.085
 20
-0.052
 11
-80.086
 21
0.052
 12
-80.086
 22
0.051
 13
-80.086
 23
0.051
  0
SOLID
  8
L3
 10
-80.085
 20
-0.052
 11
-80.086
 21
0.051
 12
-80.086
 22
-0.051
 13
-80.086
 23
-0.051
  0
SOLID
  8
L3
 10
-80.085
 20
-0.052
 11
-80.086
 21
-0.051
 12
-80.086
 22
-0.052
 13
-80.086
 23
-0.052
  0
SOLID
  8
L3
 10
-80.081
 20
0.058
 11
-80.083
 21
0.056
 12
-80.081
 22
-0.058
 13
-80.081
 23
-0.058
  0
SOLID
  8
L3
 10
-80.083
 20
0.056
 11
-80.081
 21
-0.058
 12
-80.083
 22
0.055
 13
-80.083
 23
0.055
  0
SOLID
  8
L3
 10
-80.081
 20
-0.058
 11
-80.083
 21
0.055
 12
-80.083
 22
-0.055
 13
-80.083
 23
-0.055
  0
SOLID
  8
L3
 10
-80.083
 20
0.055
 11
-80.083
 21
-0.055
 12
-80.085
 22
0.053
 13
-80.085
 23
0.053
  0
SOLID
  8
L3
 10
-80.083
 20
-0.055
 11
-80.085
 21
0.053
 12
-80.085
 22
0.052
 13
-80.085
 23
0.052
  0
SOLID
  8
L3
 10
-80.08
 20
-0.059
 11
-80.08
 21
-0.06
 12
-80.079
 22
-0.061
 13
-80.079
 23
-0.061
  0
SOLID
  8
L3
 10
-80.08
 20
-0.059
 11
-80.079
 21
-0.061
 12
-80.08
 22
0.059
 13
-80.08
 23
0.059
  0
SOLID
  8
L3
 10
-80.08
 20
-0.059
 11
-80.08
 21
0.059
 12
-80.081
 22
0.059
 13
-80.081
 23
0.059
  0
SOLID
  8
L3
 10
-80.08
 20
-0.059
 11
-80.081
 21
0.059
 12
-80.081
 22
0.058
 13
-80.081
 23
0.058
  0
SOLID
  8
L3
 10
-80.08
 20
-0.059
 11
-80.081
 21
0.058
 12
-80.081
 22
-0.058
 13
-80.081
 23
-0.058
  0
SOLID
  8
L3
 10
-80.08
 20
-0.059
 11
-80.081
 21
-0.058
 12
-80.081
 22
-0.059
 13
-80.081
 23
-0.059
  0
SOLID
  8
L3
 10
-80.078
 20
0.062
 11
-80.079
 21
0.062
 12
-80.078
 22
-0.062
 13
-80.078
 23
-0.062
  0
SOLID
  8
L3
 10
-80.079
 20
0.062
 11
-80.078
 21
-0.062
 12
-80.079
 22
0.061
 13
-80.079
 23
0.061
  0
SOLID
  8
L3
 10
-80.078
 20
-0.062
 11
-80.079
 21
0.061
 12
-80.079
 22
-0.061
 13
-80.079
 23
-0.061
  0
SOLID
  8
L3
 10
-80.079
 20
0.061
 11
-80.079
 21
-0.061
 12
-80.08
 22
0.06
 13
-80.08
 23
0.06
  0
SOLID
  8
L3
 10
-80.079
 20
-0.061
 11
-80.08
 21
0.06
 12
-80.08
 22
0.059
 13
-80.08
 23
0.059
  0
SOLID
  8
L3
 10
-80.074
 20
-0.067
 11
-80.074
 21
-0.068
 12
-80.073
 22
-0.068
 13
-80.073
 23
-0.068
  0
SOLID
  8
L3
 10
-80.074
 20
-0.067
 11
-80.073
 21
-0.068
 12
-80.074
 22
0.067
 13
-80.074
 23
0.067
  0
SOLID
  8
L3
 10
-80.074
 20
-0.067
 11
-80.074
 21
0.067
 12
-80.078
 22
0.063
 13
-80.078
 23
0.063
  0
SOLID
  8
L3
 10
-80.074
 20
-0.067
 11
-80.078
 21
0.063
 12
-80.078
 22
0.062
 13
-80.078
 23
0.062
  0
SOLID
  8
L3
 10
-80.074
 20
-0.067
 11
-80.078
 21
0.062
 12
-80.078
 22
-0.062
 13
-80.078
 23
-0.062
  0
SOLID
  8
L3
 10
-80.074
 20
-0.067
 11
-80.078
 21
-0.062
 12
-80.078
 22
-0.063
 13
-80.078
 23
-0.063
  0
SOLID
  8
L3
 10
-80.072
 20
0.069
 11
-80.073
 21
0.069
 12
-80.072
 22
-0.069
 13
-80.072
 23
-0.069
  0
SOLID
  8
L3
 10
-80.073
 20
0.069
 11
-80.072
 21
-0.069
 12
-80.073
 22
0.068
 13
-80.073
 23
0.068
  0
SOLID
  8
L3
 10
-80.072
 20
-0.069
 11
-80.073
 21
0.068
 12
-80.073
 22
-0.068
 13
-80.073
 23
-0.068
  0
SOLID
  8
L3
 10
-80.073
 20
0.068
 11
-80.073
 21
-0.068
 12
-80.074
 22
0.068
 13
-80.074
 23
0.068
  0
SOLID
  8
L3
 10
-80.073
 20
-0.068
 11
-80.074
 21
0.068
 12
-80.074
 22
0.067
 13
-80.074
 23
0.067
  0
SOLID
  8
L3
 10
-80.07
 20
0.071
 11
-80.071
 21
0.071
 12
-80.07
 22
-0.071
 13
-80.07
 23
-0.071
  0
SOLID
  8
L3
 10
-80.071
 20
0.071
 11
-80.07
 21
-0.071
 12
-80.071
 22
0.07
 13
-80.071
 23
0.07
  0
SOLID
  8
L3
 10
-80.07
 20
-0.071
 11
-80.071
 21
0.07
 12
-80.071
 22
-0.07
 13
-80.071
 23
-0.07
  0
SOLID
  8
L3
 10
-80.071
 20
0.07
 11
-80.071
 21
-0.07
 12
-80.072
 22
0.069
 13
-80.072
 23
0.069
  0
SOLID
  8
L3
 10
-80.071
 20
-0.07
 11
-80.072
 21
0.069
 12
-80.072
 22
-0.069
 13
-80.072
 23
-0.069
  0
SOLID
  8
L3
 10
-80.068
 20
0.073
 11
-80.069
 21
0.073
 12
-80.068
 22
-0.073
 13
-80.068
 23
-0.073
  0
SOLID
  8
L3
 10
-80.069
 20
0.073
 11
-80.068
 21
-0.073
 12
-80.069
 22
0.072
 13
-80.069
 23
0.072
  0
SOLID
  8
L3
 10
-80.068
 20
-0.073
 11
-80.069
 21
0.072
 12
-80.069
 22
-0.072
 13
-80.069
 23
-0.072
  0
SOLID
  8
L3
 10
-80.069
 20
0.072
 11
-80.069
 21
-0.072
 12
-80.07
 22
0.071
 13
-80.07
 23
0.071
  0
SOLID
  8
L3
 10
-80.069
 20
-0.072
 11
-80.07
 21
0.071
 12
-80.07
 22
-0.071
 13
-80.07
 23
-0.071
  0
SOLID
  8
L3
 10
-80.061
 20
0.079
 11
-80.062
 21
0.079
 12
-80.061
 22
-0.079
 13
-80.061
 23
-0.079
  0
SOLID
  8
L3
 10
-80.062
 20
0.079
 11
-80.061
 21
-0.079
 12
-80.062
 22
0.078
 13
-80.062
 23
0.078
  0
SOLID
  8
L3
 10
-80.061
 20
-0.079
 11
-80.062
 21
0.078
 12
-80.062
 22
-0.078
 13
-80.062
 23
-0.078
  0
SOLID
  8
L3
 10
-80.062
 20
0.078
 11
-80.062
 21
-0.078
 12
-80.063
 22
0.078
 13
-80.063
 23
0.078
  0
SOLID
  8
L3
 10
-80.062
 20
-0.078
 11
-80.063
 21
0.078
 12
-80.063
 22
-0.078
 13
-80.063
 23
-0.078
  0
SOLID
  8
L3
 10
-80.063
 20
0.078
 11
-80.063
 21
-0.078
 12
-80.067
 22
0.074
 13
-80.067
 23
0.074
  0
SOLID
  8
L3
 10
-80.063
 20
-0.078
 11
-80.067
 21
0.074
 12
-80.067
 22
-0.074
 13
-80.067
 23
-0.074
  0
SOLID
  8
L3
 10
-80.067
 20
0.074
 11
-80.067
 21
-0.074
 12
-80.068
 22
0.074
 13
-80.068
 23
0.074
  0
SOLID
  8
L3
 10
-80.067
 20
-0.074
 11
-80.068
 21
0.074
 12
-80.068
 22
0.073
 13
-80.068
 23
0.073
  0
SOLID
  8
L3
 10
-80.068
 20
-0.073
 11
-80.068
 21
-0.074
 12
-80.067
 22
-0.074
 13
-80.067
 23
-0.074
  0
SOLID
  8
L3
 10
-80.068
 20
-0.073
 11
-80.067
 21
-0.074
 12
-80.068
 22
0.073
 13
-80.068
 23
0.073
  0
SOLID
  8
L3
 10
-80.058
 20
0.081
 11
-80.059
 21
0.081
 12
-80.058
 22
-0.081
 13
-80.058
 23
-0.081
  0
SOLID
  8
L3
 10
-80.059
 20
0.081
 11
-80.058
 21
-0.081
 12
-80.059
 22
0.08
 13
-80.059
 23
0.08
  0
SOLID
  8
L3
 10
-80.058
 20
-0.081
 11
-80.059
 21
0.08
 12
-80.059
 22
-0.08
 13
-80.059
 23
-0.08
  0
SOLID
  8
L3
 10
-80.059
 20
0.08
 11
-80.059
 21
-0.08
 12
-80.06
 22
0.08
 13
-80.06
 23
0.08
  0
SOLID
  8
L3
 10
-80.059
 20
-0.08
 11
-80.06
 21
0.08
 12
-80.06
 22
-0.08
 13
-80.06
 23
-0.08
  0
SOLID
  8
L3
 10
-80.06
 20
0.08
 11
-80.06
 21
-0.08
 12
-80.061
 22
0.079
 13
-80.061
 23
0.079
  0
SOLID
  8
L3
 10
-80.06
 20
-0.08
 11
-80.061
 21
0.079
 12
-80.061
 22
-0.079
 13
-80.061
 23
-0.079
  0
SOLID
  8
L3
 10
-80.051
 20
0.086
 11
-80.052
 21
0.086
 12
-80.051
 22
-0.086
 13
-80.051
 23
-0.086
  0
SOLID
  8
L3
 10
-80.052
 20
0.086
 11
-80.051
 21
-0.086
 12
-80.052
 22
0.085
 13
-80.052
 23
0.085
  0
SOLID
  8
L3
 10
-80.051
 20
-0.086
 11
-80.052
 21
0.085
 12
-80.052
 22
-0.085
 13
-80.052
 23
-0.085
  0
SOLID
  8
L3
 10
-80.052
 20
0.085
 11
-80.052
 21
-0.085
 12
-80.053
 22
0.085
 13
-80.053
 23
0.085
  0
SOLID
  8
L3
 10
-80.052
 20
-0.085
 11
-80.053
 21
0.085
 12
-80.053
 22
-0.085
 13
-80.053
 23
-0.085
  0
SOLID
  8
L3
 10
-80.053
 20
0.085
 11
-80.053
 21
-0.085
 12
-80.055
 22
0.083
 13
-80.055
 23
0.083
  0
SOLID
  8
L3
 10
-80.053
 20
-0.085
 11
-80.055
 21
0.083
 12
-80.055
 22
-0.083
 13
-80.055
 23
-0.083
  0
SOLID
  8
L3
 10
-80.055
 20
0.083
 11
-80.055
 21
-0.083
 12
-80.056
 22
0.083
 13
-80.056
 23
0.083
  0
SOLID
  8
L3
 10
-80.055
 20
-0.083
 11
-80.056
 21
0.083
 12
-80.056
 22
-0.083
 13
-80.056
 23
-0.083
  0
SOLID
  8
L3
 10
-80.056
 20
0.083
 11
-80.056
 21
-0.083
 12
-80.058
 22
0.081
 13
-80.058
 23
0.081
  0
SOLID
  8
L3
 10
-80.056
 20
-0.083
 11
-80.058
 21
0.081
 12
-80.058
 22
-0.081
 13
-80.058
 23
-0.081
  0
SOLID
  8
L3
 10
-80.047
 20
0.088
 11
-80.048
 21
0.088
 12
-80.047
 22
-0.088
 13
-80.047
 23
-0.088
  0
SOLID
  8
L3
 10
-80.048
 20
0.088
 11
-80.047
 21
-0.088
 12
-80.048
 22
0.087
 13
-80.048
 23
0.087
  0
SOLID
  8
L3
 10
-80.047
 20
-0.088
 11
-80.048
 21
0.087
 12
-80.048
 22
-0.087
 13
-80.048
 23
-0.087
  0
SOLID
  8
L3
 10
-80.048
 20
0.087
 11
-80.048
 21
-0.087
 12
-80.05
 22
0.087
 13
-80.05
 23
0.087
  0
SOLID
  8
L3
 10
-80.048
 20
-0.087
 11
-80.05
 21
0.087
 12
-80.05
 22
-0.087
 13
-80.05
 23
-0.087
  0
SOLID
  8
L3
 10
-80.05
 20
0.087
 11
-80.05
 21
-0.087
 12
-80.051
 22
0.086
 13
-80.051
 23
0.086
  0
SOLID
  8
L3
 10
-80.05
 20
-0.087
 11
-80.051
 21
0.086
 12
-80.051
 22
-0.086
 13
-80.051
 23
-0.086
  0
SOLID
  8
L3
 10
-80.03
 20
0.095
 11
-80.033
 21
0.095
 12
-80.03
 22
-0.095
 13
-80.03
 23
-0.095
  0
SOLID
  8
L3
 10
-80.033
 20
0.095
 11
-80.03
 21
-0.095
 12
-80.033
 22
0.094
 13
-80.033
 23
0.094
  0
SOLID
  8
L3
 10
-80.03
 20
-0.095
 11
-80.033
 21
0.094
 12
-80.033
 22
-0.094
 13
-80.033
 23
-0.094
  0
SOLID
  8
L3
 10
-80.033
 20
0.094
 11
-80.033
 21
-0.094
 12
-80.035
 22
0.094
 13
-80.035
 23
0.094
  0
SOLID
  8
L3
 10
-80.033
 20
-0.094
 11
-80.035
 21
0.094
 12
-80.035
 22
-0.094
 13
-80.035
 23
-0.094
  0
SOLID
  8
L3
 10
-80.035
 20
0.094
 11
-80.035
 21
-0.094
 12
-80.036
 22
0.093
 13
-80.036
 23
0.093
  0
SOLID
  8
L3
 10
-80.035
 20
-0.094
 11
-80.036
 21
0.093
 12
-80.036
 22
-0.093
 13
-80.036
 23
-0.093
  0
SOLID
  8
L3
 10
-80.036
 20
0.093
 11
-80.036
 21
-0.093
 12
-80.037
 22
0.093
 13
-80.037
 23
0.093
  0
SOLID
  8
L3
 10
-80.036
 20
-0.093
 11
-80.037
 21
0.093
 12
-80.037
 22
-0.093
 13
-80.037
 23
-0.093
  0
SOLID
  8
L3
 10
-80.037
 20
0.093
 11
-80.037
 21
-0.093
 12
-80.038
 22
0.092
 13
-80.038
 23
0.092
  0
SOLID
  8
L3
 10
-80.037
 20
-0.093
 11
-80.038
 21
0.092
 12
-80.038
 22
-0.092
 13
-80.038
 23
-0.092
  0
SOLID
  8
L3
 10
-80.038
 20
0.092
 11
-80.038
 21
-0.092
 12
-80.04
 22
0.092
 13
-80.04
 23
0.092
  0
SOLID
  8
L3
 10
-80.038
 20
-0.092
 11
-80.04
 21
0.092
 12
-80.04
 22
-0.092
 13
-80.04
 23
-0.092
  0
SOLID
  8
L3
 10
-80.04
 20
0.092
 11
-80.04
 21
-0.092
 12
-80.041
 22
0.091
 13
-80.041
 23
0.091
  0
SOLID
  8
L3
 10
-80.04
 20
-0.092
 11
-80.041
 21
0.091
 12
-80.041
 22
-0.091
 13
-80.041
 23
-0.091
  0
SOLID
  8
L3
 10
-80.041
 20
0.091
 11
-80.041
 21
-0.091
 12
-80.042
 22
0.091
 13
-80.042
 23
0.091
  0
SOLID
  8
L3
 10
-80.041
 20
-0.091
 11
-80.042
 21
0.091
 12
-80.042
 22
-0.091
 13
-80.042
 23
-0.091
  0
SOLID
  8
L3
 10
-80.042
 20
0.091
 11
-80.042
 21
-0.091
 12
-80.043
 22
0.09
 13
-80.043
 23
0.09
  0
SOLID
  8
L3
 10
-80.042
 20
-0.091
 11
-80.043
 21
0.09
 12
-80.043
 22
-0.09
 13
-80.043
 23
-0.09
  0
SOLID
  8
L3
 10
-80.043
 20
0.09
 11
-80.043
 21
-0.09
 12
-80.044
 22
0.09
 13
-80.044
 23
0.09
  0
SOLID
  8
L3
 10
-80.043
 20
-0.09
 11
-80.044
 21
0.09
 12
-80.044
 22
-0.09
 13
-80.044
 23
-0.09
  0
SOLID
  8
L3
 10
-80.044
 20
0.09
 11
-80.044
 21
-0.09
 12
-80.045
 22
0.089
 13
-80.045
 23
0.089
  0
SOLID
  8
L3
 10
-80.044
 20
-0.09
 11
-80.045
 21
0.089
 12
-80.045
 22
-0.089
 13
-80.045
 23
-0.089
  0
SOLID
  8
L3
 10
-80.045
 20
0.089
 11
-80.045
 21
-0.089
 12
-80.046
 22
0.089
 13
-80.046
 23
0.089
  0
SOLID
  8
L3
 10
-80.045
 20
-0.089
 11
-80.046
 21
0.089
 12
-80.046
 22
-0.089
 13
-80.046
 23
-0.089
  0
SOLID
  8
L3
 10
-80.046
 20
0.089
 11
-80.046
 21
-0.089
 12
-80.047
 22
0.088
 13
-80.047
 23
0.088
  0
SOLID
  8
L3
 10
-80.046
 20
-0.089
 11
-80.047
 21
0.088
 12
-80.047
 22
-0.088
 13
-80.047
 23
-0.088
  0
SOLID
  8
L3
 10
-80.017
 20
0.098
 11
-80.022
 21
0.098
 12
-80.017
 22
-0.098
 13
-80.017
 23
-0.098
  0
SOLID
  8
L3
 10
-80.022
 20
0.098
 11
-80.017
 21
-0.098
 12
-80.022
 22
0.097
 13
-80.022
 23
0.097
  0
SOLID
  8
L3
 10
-80.017
 20
-0.098
 11
-80.022
 21
0.097
 12
-80.022
 22
-0.097
 13
-80.022
 23
-0.097
  0
SOLID
  8
L3
 10
-80.022
 20
0.097
 11
-80.022
 21
-0.097
 12
-80.026
 22
0.097
 13
-80.026
 23
0.097
  0
SOLID
  8
L3
 10
-80.022
 20
-0.097
 11
-80.026
 21
0.097
 12
-80.026
 22
-0.097
 13
-80.026
 23
-0.097
  0
SOLID
  8
L3
 10
-80.026
 20
0.097
 11
-80.026
 21
-0.097
 12
-80.027
 22
0.096
 13
-80.027
 23
0.096
  0
SOLID
  8
L3
 10
-80.026
 20
-0.097
 11
-80.027
 21
0.096
 12
-80.027
 22
-0.096
 13
-80.027
 23
-0.096
  0
SOLID
  8
L3
 10
-80.027
 20
0.096
 11
-80.027
 21
-0.096
 12
-80.029
 22
0.096
 13
-80.029
 23
0.096
  0
SOLID
  8
L3
 10
-80.027
 20
-0.096
 11
-80.029
 21
0.096
 12
-80.029
 22
-0.096
 13
-80.029
 23
-0.096
  0
SOLID
  8
L3
 10
-80.029
 20
0.096
 11
-80.029
 21
-0.096
 12
-80.03
 22
0.095
 13
-80.03
 23
0.095
  0
SOLID
  8
L3
 10
-80.029
 20
-0.096
 11
-80.03
 21
0.095
 12
-80.03
 22
-0.095
 13
-80.03
 23
-0.095
  0
SOLID
  8
L3
 10
-80.01
 20
-0.099
 11
-80.01
 21
-0.1
 12
-80.0
 22
-0.1
 13
-80.0
 23
-0.1
  0
SOLID
  8
L3
 10
-80.01
 20
-0.099
 11
-80.0
 21
-0.1
 12
-80.01
 22
0.099
 13
-80.01
 23
0.099
  0
SOLID
  8
L3
 10
-80.01
 20
-0.099
 11
-80.01
 21
0.099
 12
-80.017
 22
0.099
 13
-80.017
 23
0.099
  0
SOLID
  8
L3
 10
-80.01
 20
-0.099
 11
-80.017
 21
0.099
 12
-80.017
 22
0.098
 13
-80.017
 23
0.098
  0
SOLID
  8
L3
 10
-80.01
 20
-0.099
 11
-80.017
 21
0.098
 12
-80.017
 22
-0.098
 13
-80.017
 23
-0.098
  0
SOLID
  8
L3
 10
-80.01
 20
-0.099
 11
-80.017
 21
-0.098
 12
-80.017
 22
-0.099
 13
-80.017
 23
-0.099
  0
SOLID
  8
L3
 10
-80.01
 20
0.1
 11
-80.0
 21
-0.1
 12
-80.0
 22
0.1
 13
-80.0
 23
0.1
  0
SOLID
  8
L3
 10
-80.0
 20
-0.1
 11
-80.0
 21
0.1
 12
-20.0
 22
-0.75
 13
-20.0
 23
-0.75
  0
SOLID
  8
L3
 10
-80.0
 20
0.1
 11
-20.0
 21
-0.75
 12
-20.0
 22
0.75
 13
-20.0
 23
0.75
  0
SOLID
  8
L3
 10
-20.0
 20
-0.75
 11
-20.0
 21
0.75
 12
100.0
 22
-0.75
 13
100.0
 23
-0.75
  0
SOLID
  8
L3
 10
-20.0
 20
0.75
 11
100.0
 21
-0.75
 12
100.0
 22
0.75
 13
100.0
 23
0.75
  0
SOLID
  8
L3
 10
100.0
 20
-0.75
 11
100.0
 21
0.75
 12
160.0
 22
-0.1
 13
160.0
 23
-0.1
  0
SOLID
  8
L3
 10
100.0
 20
0.75
 11
160.0
 21
-0.1
 12
160.0
 22
0.1
 13
160.0
 23
0.1
  0
SOLID
  8
L3
 10
160.0
 20
-0.1
 11
160.0
 21
0.1
 12
160.01
 22
-0.1
 13
160.01
 23
-0.1
  0
SOLID
  8
L3
 10
160.0
 20
0.1
 11
160.01
 21
-0.1
 12
160.01
 22
0.1
 13
160.01
 23
0.1
  0
SOLID
  8
L3
 10
160.01
 20
-0.1
 11
160.01
 21
0.1
 12
160.01
 22
-0.099
 13
160.01
 23
-0.099
  0
SOLID
  8
L3
 10
160.01
 20
0.1
 11
160.01
 21
-0.099
 12
160.01
 22
0.099
 13
160.01
 23
0.099
  0
SOLID
  8
L3
 10
160.01
 20
-0.099
 11
160.01
 21
0.099
 12
160.017
 22
-0.099
 13
160.017
 23
-0.099
  0
SOLID
  8
L3
 10
160.01
 20
0.099
 11
160.017
 21
-0.099
 12
160.017
 22
0.099
 13
160.017
 23
0.099
  0
SOLID
  8
L3
 10
160.017
 20
-0.099
 11
160.017
 21
0.099
 12
160.017
 22
-0.098
 13
160.017
 23
-0.098
  0
SOLID
  8
L3
 10
160.017
 20
0.099
 11
160.017
 21
-0.098
 12
160.017
 22
0.098
 13
160.017
 23
0.098
  0
SOLID
  8
L3
 10
160.017
 20
-0.098
 11
160.017
 21
0.098
 12
160.022
 22
-0.098
 13
160.022
 23
-0.098
  0
SOLID
  8
L3
 10
160.017
 20
0.098
 11
160.022
 21
-0.098
 12
160.022
 22
0.098
 13
160.022
 23
0.098
  0
SOLID
  8
L3
 10
160.022
 20
-0.098
 11
160.022
 21
0.098
 12
160.022
 22
-0.097
 13
160.022
 23
-0.097
  0
SOLID
  8
L3
 10
160.022
 20
0.098
 11
160.022
 21
-0.097
 12
160.022
 22
0.097
 13
160.022
 23
0.097
  0
SOLID
  8
L3
 10
160.022
 20
-0.097
 11
160.022
 21
0.097
 12
160.026
 22
-0.097
 13
160.026
 23
-0.097
  0
SOLID
  8
L3
 10
160.022
 20
0.097
 11
160.026
 21
-0.097
 12
160.026
 22
0.097
 13
160.026
 23
0.097
  0
SOLID
  8
L3
 10
160.026
 20
-0.097
 11
160.026
 21
0.097
 12
160.027
 22
-0.096
 13
160.027
 23
-0.096
  0
SOLID
  8
L3
 10
160.026
 20
0.097
 11
160.027
 21
-0.096
 12
160.027
 22
0.096
 13
160.027
 23
0.096
  0
SOLID
  8
L3
 10
160.027
 20
-0.096
 11
160.027
 21
0.096
 12
160.029
 22
-0.096
 13
160.029
 23
-0.096
  0
SOLID
  8
L3
 10
160.027
 20
0.096
 11
160.029
 21
-0.096
 12
160.029
 22
0.096
 13
160.029
 23
0.096
  0
SOLID
  8
L3
 10
160.029
 20
-0.096
 11
160.029
 21
0.096
 12
160.03
 22
-0.095
 13
160.03
 23
-0.095
  0
SOLID
  8
L3
 10
160.029
 20
0.096
 11
160.03
 21
-0.095
 12
160.03
 22
0.095
 13
160.03
 23
0.095
  0
SOLID
  8
L3
 10
160.03
 20
-0.095
 11
160.03
 21
0.095
 12
160.033
 22
-0.095
 13
160.033
 23
-0.095
  0
SOLID
  8
L3
 10
160.03
 20
0.095
 11
160.033
 21
-0.095
 12
160.033
 22
0.095
 13
160.033
 23
0.095
  0
SOLID
  8
L3
 10
160.033
 20
-0.095
 11
160.033
 21
0.095
 12
160.033
 22
-0.094
 13
160.033
 23
-0.094
  0
SOLID
  8
L3
 10
160.033
 20
0.095
 11
160.033
 21
-0.094
 12
160.033
 22
0.094
 13
160.033
 23
0.094
  0
SOLID
  8
L3
 10
160.033
 20
-0.094
 11
160.033
 21
0.094
 12
160.035
 22
-0.094
 13
160.035
 23
-0.094
  0
SOLID
  8
L3
 10
160.033
 20
0.094
 11
160.035
 21
-0.094
 12
160.035
 22
0.094
 13
160.035
 23
0.094
  0
SOLID
  8
L3
 10
160.035
 20
-0.094
 11
160.035
 21
0.094
 12
160.036
 22
-0.093
 13
160.036
 23
-0.093
  0
SOLID
  8
L3
 10
160.035
 20
0.094
 11
160.036
 21
-0.093
 12
160.036
 22
0.093
 13
160.036
 23
0.093
  0
SOLID
  8
L3
 10
160.036
 20
-0.093
 11
160.036
 21
0.093
 12
160.037
 22
-0.093
 13
160.037
 23
-0.093
  0
SOLID
  8
L3
 10
160.036
 20
0.093
 11
160.037
 21
-0.093
 12
160.037
 22
0.093
 13
160.037
 23
0.093
  0
SOLID
  8
L3
 10
160.037
 20
-0.093
 11
160.037
 21
0.093
 12
160.038
 22
-0.092
 13
160.038
 23
-0.092
  0
SOLID
  8
L3
 10
160.037
 20
0.093
 11
160.038
 21
-0.092
 12
160.038
 22
0.092
 13
160.038
 23
0.092
  0
SOLID
  8
L3
 10
160.038
 20
-0.092
 11
160.038
 21
0.092
 12
160.04
 22
-0.092
 13
160.04
 23
-0.092
  0
SOLID
  8
L3
 10
160.038
 20
0.092
 11
160.04
 21
-0.092
 12
160.04
 22
0.092
 13
160.04
 23
0.092
  0
SOLID
  8
L3
 10
160.04
 20
-0.092
 11
160.04
 21
0.092
 12
160.041
 22
-0.091
 13
160.041
 23
-0.091
  0
SOLID
  8
L3
 10
160.04
 20
0.092
 11
160.041
 21
-0.091
 12
160.041
 22
0.091
 13
160.041
 23
0.091
  0
SOLID
  8
L3
 10
160.041
 20
-0.091
 11
160.041
 21
0.091
 12
160.042
 22
-0.091
 13
160.042
 23
-0.091
  0
SOLID
  8
L3
 10
160.041
 20
0.091
 11
160.042
 21
-0.091
 12
160.042
 22
0.091
 13
160.042
 23
0.091
  0
SOLID
  8
L3
 10
160.042
 20
-0.091
 11
160.042
 21
0.091
 12
160.043
 22
-0.09
 13
160.043
 23
-0.09
  0
SOLID
  8
L3
 10
160.042
 20
0.091
 11
160.043
 21
-0.09
 12
160.043
 22
0.09
 13
160.043
 23
0.09
  0
SOLID
  8
L3
 10
160.043
 20
-0.09
 11
160.043
 21
0.09
 12
160.044
 22
-0.09
 13
160.044
 23
-0.09
  0
SOLID
  8
L3
 10
160.043
 20
0.09
 11
160.044
 21
-0.09
 12
160.044
 22
0.09
 13
160.044
 23
0.09
  0
SOLID
  8
L3
 10
160.044
 20
-0.09
 11
160.044
 21
0.09
 12
160.045
 22
-0.089
 13
160.045
 23
-0.089
  0
SOLID
  8
L3
 10
160.044
 20
0.09
 11
160.045
 21
-0.089
 12
160.045
 22
0.089
 13
160.045
 23
0.089
  0
SOLID
  8
L3
 10
160.045
 20
-0.089
 11
160.045
 21
0.089
 12
160.046
 22
-0.089
 13
160.046
 23
-0.089
  0
SOLID
  8
L3
 10
160.045
 20
0.089
 11
160.046
 21
-0.089
 12
160.046
 22
0.089
 13
160.046
 23
0.089
  0
SOLID
  8
L3
 10
160.046
 20
-0.089
 11
160.046
 21
0.089
 12
160.047
 22
-0.088
 13
160.047
 23
-0.088
  0
SOLID
  8
L3
 10
160.046
 20
0.089
 11
160.047
 21
-0.088
 12
160.047
 22
0.088
 13
160.047
 23
0.088
  0
SOLID
  8
L3
 10
160.047
 20
-0.088
 11
160.047
 21
0.088
 12
160.048
 22
-0.088
 13
160.048
 23
-0.088
  0
SOLID
  8
L3
 10
160.047
 20
0.088
 11
160.048
 21
-0.088
 12
160.048
 22
0.088
 13
160.048
 23
0.088
  0
SOLID
  8
L3
 10
160.048
 20
-0.088
 11
160.048
 21
0.088
 12
160.048
 22
-0.087
 13
160.048
 23
-0.087
  0
SOLID
  8
L3
 10
160.048
 20
0.088
 11
160.048
 21
-0.087
 12
160.048
 22
0.087
 13
160.048
 23
0.087
  0
SOLID
  8
L3
 10
160.048
 20
-0.087
 11
160.048
 21
0.087
 12
160.05
 22
-0.087
 13
160.05
 23
-0.087
  0
SOLID
  8
L3
 10
160.048
 20
0.087
 11
160.05
 21
-0.087
 12
160.05
 22
0.087
 13
160.05
 23
0.087
  0
SOLID
  8
L3
 10
160.05
 20
-0.087
 11
160.05
 21
0.087
 12
160.051
 22
-0.086
 13
160.051
 23
-0.086
  0
SOLID
  8
L3
 10
160.05
 20
0.087
 11
160.051
 21
-0.086
 12
160.051
 22
0.086
 13
160.051
 23
0.086
  0
SOLID
  8
L3
 10
160.051
 20
-0.086
 11
160.051
 21
0.086
 12
160.052
 22
-0.086
 13
160.052
 23
-0.086
  0
SOLID
  8
L3
 10
160.051
 20
0.086
 11
160.052
 21
-0.086
 12
160.052
 22
0.086
 13
160.052
 23
0.086
  0
SOLID
  8
L3
 10
160.052
 20
-0.086
 11
160.052
 21
0.086
 12
160.052
 22
-0.085
 13
160.052
 23
-0.085
  0
SOLID
  8
L3
 10
160.052
 20
0.086
 11
160.052
 21
-0.085
 12
160.052
 22
0.085
 13
160.052
 23
0.085
  0
SOLID
  8
L3
 10
160.052
 20
-0.085
 11
160.052
 21
0.085
 12
160.053
 22
-0.085
 13
160.053
 23
-0.085
  0
SOLID
  8
L3
 10
160.052
 20
0.085
 11
160.053
 21
-0.085
 12
160.053
 22
0.085
 13
160.053
 23
0.085
  0
SOLID
  8
L3
 10
160.053
 20
-0.085
 11
160.053
 21
0.085
 12
160.055
 22
-0.083
 13
160.055
 23
-0.083
  0
SOLID
  8
L3
 10
160.053
 20
0.085
 11
160.055
 21
-0.083
 12
160.055
 22
0.083
 13
160.055
 23
0.083
  0
SOLID
  8
L3
 10
160.055
 20
-0.083
 11
160.055
 21
0.083
 12
160.056
 22
-0.083
 13
160.056
 23
-0.083
  0
SOLID
  8
L3
 10
160.055
 20
0.083
 11
160.056
 21
-0.083
 12
160.056
 22
0.083
 13
160.056
 23
0.083
  0
SOLID
  8
L3
 10
160.056
 20
-0.083
 11
160.056
 21
0.083
 12
160.058
 22
-0.081
 13
160.058
 23
-0.081
  0
SOLID
  8
L3
 10
160.056
 20
0.083
 11
160.058
 21
-0.081
 12
160.058
 22
0.081
 13
160.058
 23
0.081
  0
SOLID
  8
L3
 10
160.058
 20
-0.081
 11
160.058
 21
0.081
 12
160.059
 22
-0.081
 13
160.059
 23
-0.081
  0
SOLID
  8
L3
 10
160.058
 20
0.081
 11
160.059
 21
-0.081
 12
160.059
 22
0.081
 13
160.059
 23
0.081
  0
SOLID
  8
L3
 10
160.059
 20
-0.081
 11
160.059
 21
0.081
 12
160.059
 22
-0.08
 13
160.059
 23
-0.08
  0
SOLID
  8
L3
 10
160.059
 20
0.081
 11
160.059
 21
-0.08
 12
160.059
 22
0.08
 13
160.059
 23
0.08
  0
SOLID
  8
L3
 10
160.059
 20
-0.08
 11
160.059
 21
0.08
 12
160.06
 22
-0.08
 13
160.06
 23
-0.08
  0
SOLID
  8
L3
 10
160.059
 20
0.08
 11
160.06
 21
-0.08
 12
160.06
 22
0.08
 13
160.06
 23
0.08
  0
SOLID
  8
L3
 10
160.06
 20
-0.08
 11
160.06
 21
0.08
 12
160.061
 22
-0.079
 13
160.061
 23
-0.079
  0
SOLID
  8
L3
 10
160.06
 20
0.08
 11
160.061
 21
-0.079
 12
160.061
 22
0.079
 13
160.061
 23
0.079
  0
SOLID
  8
L3
 10
160.061
 20
-0.079
 11
160.061
 21
0.079
 12
160.062
 22
-0.079
 13
160.062
 23
-0.079
  0
SOLID
  8
L3
 10
160.061
 20
0.079
 11
160.062
 21
-0.079
 12
160.062
 22
0.079
 13
160.062
 23
0.079
  0
SOLID
  8
L3
 10
160.062
 20
-0.079
 11
160.062
 21
0.079
 12
160.062
 22
-0.078
 13
160.062
 23
-0.078
  0
SOLID
  8
L3
 10
160.062
 20
0.079
 11
160.062
 21
-0.078
 12
160.062
 22
0.078
 13
160.062
 23
0.078
  0
SOLID
  8
L3
 10
160.062
 20
-0.078
 11
160.062
 21
0.078
 12
160.063
 22
-0.078
 13
160.063
 23
-0.078
  0
SOLID
  8
L3
 10
160.062
 20
0.078
 11
160.063
 21
-0.078
 12
160.063
 22
0.078
 13
160.063
 23
0.078
  0
SOLID
  8
L3
 10
160.063
 20
-0.078
 11
160.063
 21
0.078
 12
160.067
 22
-0.074
 13
160.067
 23
-0.074
  0
SOLID
  8
L3
 10
160.063
 20
0.078
 11
160.067
 21
-0.074
 12
160.067
 22
0.074
 13
160.067
 23
0.074
  0
SOLID
  8
L3
 10
160.067
 20
-0.074
 11
160.067
 21
0.074
 12
160.068
 22
-0.074
 13
160.068
 23
-0.074
  0
SOLID
  8
L3
 10
160.067
 20
0.074
 11
160.068
 21
-0.074
 12
160.068
 22
0.074
 13
160.068
 23
0.074
  0
SOLID
  8
L3
 10
160.068
 20
-0.074
 11
160.068
 21
0.074
 12
160.068
 22
-0.073
 13
160.068
 23
-0.073
  0
SOLID
  8
L3
 10
160.068
 20
0.074
 11
160.068
 21
-0.073
 12
160.068
 22
0.073
 13
160.068
 23
0.073
  0
SOLID
  8
L3
 10
160.068
 20
-0.073
 11
160.068
 21
0.073
 12
160.069
 22
-0.073
 13
160.069
 23
-0.073
  0
SOLID
  8
L3
 10
160.068
 20
0.073
 11
160.069
 21
-0.073
 12
160.069
 22
0.073
 13
160.069
 23
0.073
  0
SOLID
  8
L3
 10
160.069
 20
-0.073
 11
160.069
 21
0.073
 12
160.069
 22
-0.072
 13
160.069
 23
-0.072
  0
SOLID
  8
L3
 10
160.069
 20
0.073
 11
160.069
 21
-0.072
 12
160.069
 22
0.072
 13
160.069
 23
0.072
  0
SOLID
  8
L3
 10
160.069
 20
-0.072
 11
160.069
 21
0.072
 12
160.07
 22
-0.071
 13
160.07
 23
-0.071
  0
SOLID
  8
L3
 10
160.069
 20
0.072
 11
160.07
 21
-0.071
 12
160.07
 22
0.071
 13
160.07
 23
0.071
  0
SOLID
  8
L3
 10
160.07
 20
-0.071
 11
160.07
 21
0.071
 12
160.071
 22
-0.071
 13
160.071
 23
-0.071
  0
SOLID
  8
L3
 10
160.07
 20
0.071
 11
160.071
 21
-0.071
 12
160.071
 22
0.071
 13
160.071
 23
0.071
  0
SOLID
  8
L3
 10
160.071
 20
-0.071
 11
160.071
 21
0.071
 12
160.071
 22
-0.07
 13
160.071
 23
-0.07
  0
SOLID
  8
L3
 10
160.071
 20
0.071
 11
160.071
 21
-0.07
 12
160.071
 22
0.07
 13
160.071
 23
0.07
  0
SOLID
  8
L3
 10
160.071
 20
-0.07
 11
160.071
 21
0.07
 12
160.072
 22
-0.069
 13
160.072
 23
-0.069
  0
SOLID
  8
L3
 10
160.071
 20
0.07
 11
160.072
 21
-0.069
 12
160.072
 22
0.069
 13
160.072
 23
0.069
  0
SOLID
  8
L3
 10
160.072
 20
-0.069
 11
160.072
 21
0.069
 12
160.073
 22
-0.069
 13
160.073
 23
-0.069
  0
SOLID
  8
L3
 10
160.072
 20
0.069
 11
160.073
 21
-0.069
 12
160.073
 22
0.069
 13
160.073
 23
0.069
  0
SOLID
  8
L3
 10
160.073
 20
-0.069
 11
160.073
 21
0.069
 12
160.073
 22
-0.068
 13
160.073
 23
-0.068
  0
SOLID
  8
L3
 10
160.073
 20
0.069
 11
160.073
 21
-0.068
 12
160.073
 22
0.068
 13
160.073
 23
0.068
  0
SOLID
  8
L3
 10
160.073
 20
-0.068
 11
160.073
 21
0.068
 12
160.074
 22
-0.068
 13
160.074
 23
-0.068
  0
SOLID
  8
L3
 10
160.073
 20
0.068
 11
160.074
 21
-0.068
 12
160.074
 22
0.068
 13
160.074
 23
0.068
  0
SOLID
  8
L3
 10
160.074
 20
-0.068
 11
160.074
 21
0.068
 12
160.074
 22
-0.067
 13
160.074
 23
-0.067
  0
SOLID
  8
L3
 10
160.074
 20
0.068
 11
160.074
 21
-0.067
 12
160.074
 22
0.067
 13
160.074
 23
0.067
  0
SOLID
  8
L3
 10
160.074
 20
-0.067
 11
160.074
 21
0.067
 12
160.078
 22
-0.063
 13
160.078
 23
-0.063
  0
SOLID
  8
L3
 10
160.074
 20
0.067
 11
160.078
 21
-0.063
 12
160.078
 22
0.063
 13
160.078
 23
0.063
  0
SOLID
  8
L3
 10
160.078
 20
-0.063
 11
160.078
 21
0.063
 12
160.078
 22
-0.062
 13
160.078
 23
-0.062
  0
SOLID
  8
L3
 10
160.078
 20
0.063
 11
160.078
 21
-0.062
 12
160.078
 22
0.062
 13
160.078
 23
0.062
  0
SOLID
  8
L3
 10
160.078
 20
-0.062
 11
160.078
 21
0.062
 12
160.079
 22
-0.062
 13
160.079
 23
-0.062
  0
SOLID
  8
L3
 10
160.078
 20
0.062
 11
160.079
 21
-0.062
 12
160.079
 22
0.062
 13
160.079
 23
0.062
  0
SOLID
  8
L3
 10
160.079
 20
-0.062
 11
160.079
 21
0.062
 12
160.079
 22
-0.061
 13
160.079
 23
-0.061
  0
SOLID
  8
L3
 10
160.079
 20
0.062
 11
160.079
 21
-0.061
 12
160.079
 22
0.061
 13
160.079
 23
0.061
  0
SOLID
  8
L3
 10
160.079
 20
-0.061
 11
160.079
 21
0.061
 12
160.08
 22
-0.06
 13
160.08
 23
-0.06
  0
SOLID
  8
L3
 10
160.079
 20
0.061
 11
160.08
 21
-0.06
 12
160.08
 22
0.06
 13
160.08
 23
0.06
  0
SOLID
  8
L3
 10
160.08
 20
-0.06
 11
160.08
 21
0.06
 12
160.08
 22
-0.059
 13
160.08
 23
-0.059
  0
SOLID
  8
L3
 10
160.08
 20
0.06
 11
160.08
 21
-0.059
 12
160.08
 22
0.059
 13
160.08
 23
0.059
  0
SOLID
  8
L3
 10
160.08
 20
-0.059
 11
160.08
 21
0.059
 12
160.081
 22
-0.059
 13
160.081
 23
-0.059
  0
SOLID
  8
L3
 10
160.08
 20
0.059
 11
160.081
 21
-0.059
 12
160.081
 22
0.059
 13
160.081
 23
0.059
  0
SOLID
  8
L3
 10
160.081
 20
-0.059
 11
160.081
 21
0.059
 12
160.081
 22
-0.058
 13
160.081
 23
-0.058
  0
SOLID
  8
L3
 10
160.081
 20
0.059
 11
160.081
 21
-0.058
 12
160.081
 22
0.058
 13
160.081
 23
0.058
  0
SOLID
  8
L3
 10
160.081
 20
-0.058
 11
160.081
 21
0.058
 12
160.083
 22
-0.056
 13
160.083
 23
-0.056
  0
SOLID
  8
L3
 10
160.081
 20
0.058
 11
160.083
 21
-0.056
 12
160.083
 22
0.056
 13
160.083
 23
0.056
  0
SOLID
  8
L3
 10
160.083
 20
-0.056
 11
160.083
 21
0.056
 12
160.083
 22
-0.055
 13
160.083
 23
-0.055
  0
SOLID
  8
L3
 10
160.083
 20
0.056
 11
160.083
 21
-0.055
 12
160.083
 22
0.055
 13
160.083
 23
0.055
  0
SOLID
  8
L3
 10
160.083
 20
-0.055
 11
160.083
 21
0.055
 12
160.085
 22
-0.053
 13
160.085
 23
-0.053
  0
SOLID
  8
L3
 10
160.083
 20
0.055
 11
160.085
 21
-0.053
 12
160.085
 22
0.053
 13
160.085
 23
0.053
  0
SOLID
  8
L3
 10
160.085
 20
-0.053
 11
160.085
 21
0.053
 12
160.085
 22
-0.052
 13
160.085
 23
-0.052
  0
SOLID
  8
L3
 10
160.085
 20
0.053
 11
160.085
 21
-0.052
 12
160.085
 22
0.052
 13
160.085
 23
0.052
  0
SOLID
  8
L3
 10
160.085
 20
-0.052
 11
160.085
 21
0.052
 12
160.086
 22
-0.052
 13
160.086
 23
-0.052
  0
SOLID
  8
L3
 10
160.085
 20
0.052
 11
160.086
 21
-0.052
 12
160.086
 22
0.052
 13
160.086
 23
0.052
  0
SOLID
  8
L3
 10
160.086
 20
-0.052
 11
160.086
 21
0.052
 12
160.086
 22
-0.051
 13
160.086
 23
-0.051
  0
SOLID
  8
L3
 10
160.086
 20
0.052
 11
160.086
 21
-0.051
 12
160.086
 22
0.051
 13
160.086
 23
0.051
  0
SOLID
  8
L3
 10
160.086
 20
-0.051
 11
160.086
 21
0.051
 12
160.087
 22
-0.05
 13
160.087
 23
-0.05
  0
SOLID
  8
L3
 10
160.086
 20
0.051
 11
160.087
 21
-0.05
 12
160.087
 22
0.05
 13
160.087
 23
0.05
  0
SOLID
  8
L3
 10
160.087
 20
-0.05
 11
160.087
 21
0.05
 12
160.087
 22
-0.048
 13
160.087
 23
-0.048
  0
SOLID
  8
L3
 10
160.087
 20
0.05
 11
160.087
 21
-0.048
 12
160.087
 22
0.048
 13
160.087
 23
0.048
  0
SOLID
  8
L3
 10
160.087
 20
-0.048
 11
160.087
 21
0.048
 12
160.088
 22
-0.048
 13
160.088
 23
-0.048
  0
SOLID
  8
L3
 10
160.087
 20
0.048
 11
160.088
 21
-0.048
 12
160.088
 22
0.048
 13
160.088
 23
0.048
  0
SOLID
  8
L3
 10
160.088
 20
-0.048
 11
160.088
 21
0.048
 12
160.088
 22
-0.047
 13
160.088
 23
-0.047
  0
SOLID
  8
L3
 10
160.088
 20
0.048
 11
160.088
 21
-0.047
 12
160.088
 22
0.047
 13
160.088
 23
0.047
  0
SOLID
  8
L3
 10
160.088
 20
-0.047
 11
160.088
 21
0.047
 12
160.089
 22
-0.046
 13
160.089
 23
-0.046
  0
SOLID
  8
L3
 10
160.088
 20
0.047
 11
160.089
 21
-0.046
 12
160.089
 22
0.046
 13
160.089
 23
0.046
  0
SOLID
  8
L3
 10
160.089
 20
-0.046
 11
160.089
 21
0.046
 12
160.089
 22
-0.045
 13
160.089
 23
-0.045
  0
SOLID
  8
L3
 10
160.089
 20
0.046
 11
160.089
 21
-0.045
 12
160.089
 22
0.045
 13
160.089
 23
0.045
  0
SOLID
  8
L3
 10
160.089
 20
-0.045
 11
160.089
 21
0.045
 12
160.09
 22
-0.044
 13
160.09
 23
-0.044
  0
SOLID
  8
L3
 10
160.089
 20
0.045
 11
160.09
 21
-0.044
 12
160.09
 22
0.044
 13
160.09
 23
0.044
  0
SOLID
  8
L3
 10
160.09
 20
-0.044
 11
160.09
 21
0.044
 12
160.09
 22
-0.043
 13
160.09
 23
-0.043
  0
SOLID
  8
L3
 10
160.09
 20
0.044
 11
160.09
 21
-0.043
 12
160.09
 22
0.043
 13
160.09
 23
0.043
  0
SOLID
  8
L3
 10
160.09
 20
-0.043
 11
160.09
 21
0.043
 12
160.091
 22
-0.042
 13
160.091
 23
-0.042
  0
SOLID
  8
L3
 10
160.09
 20
0.043
 11
160.091
 21
-0.042
 12
160.091
 22
0.042
 13
160.091
 23
0.042
  0
SOLID
  8
L3
 10
160.091
 20
-0.042
 11
160.091
 21
0.042
 12
160.091
 22
-0.041
 13
160.091
 23
-0.041
  0
SOLID
  8
L3
 10
160.091
 20
0.042
 11
160.091
 21
-0.041
 12
160.091
 22
0.041
 13
160.091
 23
0.041
  0
SOLID
  8
L3
 10
160.091
 20
-0.041
 11
160.091
 21
0.041
 12
160.092
 22
-0.04
 13
160.092
 23
-0.04
  0
SOLID
  8
L3
 10
160.091
 20
0.041
 11
160.092
 21
-0.04
 12
160.092
 22
0.04
 13
160.092
 23
0.04
  0
SOLID
  8
L3
 10
160.092
 20
-0.04
 11
160.092
 21
0.04
 12
160.092
 22
-0.038
 13
160.092
 23
-0.038
  0
SOLID
  8
L3
 10
160.092
 20
0.04
 11
160.092
 21
-0.038
 12
160.092
 22
0.038
 13
160.092
 23
0.038
  0
SOLID
  8
L3
 10
160.092
 20
-0.038
 11
160.092
 21
0.038
 12
160.093
 22
-0.037
 13
160.093
 23
-0.037
  0
SOLID
  8
L3
 10
160.092
 20
0.038
 11
160.093
 21
-0.037
 12
160.093
 22
0.037
 13
160.093
 23
0.037
  0
SOLID
  8
L3
 10
160.093
 20
-0.037
 11
160.093
 21
0.037
 12
160.093
 22
-0.036
 13
160.093
 23
-0.036
  0
SOLID
  8
L3
 10
160.093
 20
0.037
 11
160.093
 21
-0.036
 12
160.093
 22
0.036
 13
160.093
 23
0.036
  0
SOLID
  8
L3
 10
160.093
 20
-0.036
 11
160.093
 21
0.036
 12
160.094
 22
-0.035
 13
160.094
 23
-0.035
  0
SOLID
  8
L3
 10
160.093
 20
0.036
 11
160.094
 21
-0.035
 12
160.094
 22
0.035
 13
160.094
 23
0.035
  0
SOLID
  8
L3
 10
160.094
 20
-0.035
 11
160.094
 21
0.035
 12
160.094
 22
-0.033
 13
160.094
 23
-0.033
  0
SOLID
  8
L3
 10
160.094
 20
0.035
 11
160.094
 21
-0.033
 12
160.094
 22
0.033
 13
160.094
 23
0.033
  0
SOLID
  8
L3
 10
160.094
 20
-0.033
 11
160.094
 21
0.033
 12
160.095
 22
-0.033
 13
160.095
 23
-0.033
  0
SOLID
  8
L3
 10
160.094
 20
0.033
 11
160.095
 21
-0.033
 12
160.095
 22
0.033
 13
160.095
 23
0.033
  0
SOLID
  8
L3
 10
160.095
 20
-0.033
 11
160.095
 21
0.033
 12
160.095
 22
-0.03
 13
160.095
 23
-0.03
  0
SOLID
  8
L3
 10
160.095
 20
0.033
 11
160.095
 21
-0.03
 12
160.095
 22
0.03
 13
160.095
 23
0.03
  0
SOLID
  8
L3
 10
160.095
 20
-0.03
 11
160.095
 21
0.03
 12
160.096
 22
-0.029
 13
160.096
 23
-0.029
  0
SOLID
  8
L3
 10
160.095
 20
0.03
 11
160.096
 21
-0.029
 12
160.096
 22
0.029
 13
160.096
 23
0.029
  0
SOLID
  8
L3
 10
160.096
 20
-0.029
 11
160.096
 21
0.029
 12
160.096
 22
-0.027
 13
160.096
 23
-0.027
  0
SOLID
  8
L3
 10
160.096
 20
0.029
 11
160.096
 21
-0.027
 12
160.096
 22
0.027
 13
160.096
 23
0.027
  0
SOLID
  8
L3
 10
160.096
 20
-0.027
 11
160.096
 21
0.027
 12
160.097
 22
-0.026
 13
160.097
 23
-0.026
  0
SOLID
  8
L3
 10
160.096
 20
0.027
 11
160.097
 21
-0.026
 12
160.097
 22
0.026
 13
160.097
 23
0.026
  0
SOLID
  8
L3
 10
160.097
 20
-0.026
 11
160.097
 21
0.026
 12
160.097
 22
-0.022
 13
160.097
 23
-0.022
  0
SOLID
  8
L3
 10
160.097
 20
0.026
 11
160.097
 21
-0.022
 12
160.097
 22
0.022
 13
160.097
 23
0.022
  0
SOLID
  8
L3
 10
160.097
 20
-0.022
 11
160.097
 21
0.022
 12
160.098
 22
-0.022
 13
160.098
 23
-0.022
  0
SOLID
  8
L3
 10
160.097
 20
0.022
 11
160.098
 21
-0.022
 12
160.098
 22
0.022
 13
160.098
 23
0.022
  0
SOLID
  8
L3
 10
160.098
 20
-0.022
 11
160.098
 21
0.022
 12
160.098
 22
-0.017
 13
160.098
 23
-0.017
  0
SOLID
  8
L3
 10
160.098
 20
0.022
 11
160.098
 21
-0.017
 12
160.098
 22
0.017
 13
160.098
 23
0.017
  0
SOLID
  8
L3
 10
160.098
 20
-0.017
 11
160.098
 21
0.017
 12
160.099
 22
-0.017
 13
160.099
 23
-0.017
  0
SOLID
  8
L3
 10
160.098
 20
0.017
 11
160.099
 21
-0.017
 12
160.099
 22
0.017
 13
160.099
 23
0.017
  0
SOLID
  8
L3
 10
160.099
 20
-0.017
 11
160.099
 21
0.017
 12
160.099
 22
-0.01
 13
160.099
 23
-0.01
  0
SOLID
  8
L3
 10
160.099
 20
0.017
 11
160.099
 21
-0.01
 12
160.099
 22
0.01
 13
160.099
 23
0.01
  0
SOLID
  8
L3
 10
160.099
 20
-0.01
 11
160.099
 21
0.01
 12
160.1
 22
-0.01
 13
160.1
 23
-0.01
  0
SOLID
  8
L3
 10
160.099
 20
0.01
 11
160.1
 21
-0.01
 12
160.1
 22
0.01
 13
160.1
 23
0.01
  0
SOLID
  8
L3
 10
-80.01
 20
0.099
 11
-80.0
 21
-0.1
 12
-80.01
 22
0.1
 13
-80.01
 23
0.1
  0
SOLID
  8
L3
 10
-80.017
 20
-0.098
 11
-80.022
 21
-0.097
 12
-80.022
 22
-0.098
 13
-80.022
 23
-0.098
  0
SOLID
  8
L3
 10
-80.03
 20
-0.095
 11
-80.033
 21
-0.094
 12
-80.033
 22
-0.095
 13
-80.033
 23
-0.095
  0
SOLID
  8
L3
 10
-80.047
 20
-0.088
 11
-80.048
 21
-0.087
 12
-80.048
 22
-0.088
 13
-80.048
 23
-0.088
  0
SOLID
  8
L3
 10
-80.051
 20
-0.086
 11
-80.052
 21
-0.085
 12
-80.052
 22
-0.086
 13
-80.052
 23
-0.086
  0
SOLID
  8
L3
 10
-80.058
 20
-0.081
 11
-80.059
 21
-0.08
 12
-80.059
 22
-0.081
 13
-80.059
 23
-0.081
  0
SOLID
  8
L3
 10
-80.061
 20
-0.079
 11
-80.062
 21
-0.078
 12
-80.062
 22
-0.079
 13
-80.062
 23
-0.079
  0
SOLID
  8
L3
 10
-80.068
 20
-0.073
 11
-80.069
 21
-0.072
 12
-80.069
 22
-0.073
 13
-80.069
 23
-0.073
  0
SOLID
  8
L3
 10
-80.07
 20
-0.071
 11
-80.071
 21
-0.07
 12
-80.071
 22
-0.071
 13
-80.071
 23
-0.071
  0
SOLID
  8
L3
 10
-80.072
 20
-0.069
 11
-80.073
 21
-0.068
 12
-80.073
 22
-0.069
 13
-80.073
 23
-0.069
  0
SOLID
  8
L3
 10
-80.078
 20
-0.062
 11
-80.079
 21
-0.061
 12
-80.079
 22
-0.062
 13
-80.079
 23
-0.062
  0
SOLID
  8
L3
 10
-80.081
 20
-0.058
 11
-80.083
 21
-0.055
 12
-80.083
 22
-0.056
 13
-80.083
 23
-0.056
  0
SOLID
  8
L3
 10
-80.086
 20
-0.051
 11
-80.087
 21
-0.048
 12
-80.087
 22
-0.05
 13
-80.087
 23
-0.05
  0
SOLID
  8
L3
 10
-80.089
 20
-0.045
 11
-80.09
 21
-0.043
 12
-80.09
 22
-0.044
 13
-80.09
 23
-0.044
  0
SOLID
  8
L3
 10
-80.092
 20
-0.038
 11
-80.093
 21
-0.036
 12
-80.093
 22
-0.037
 13
-80.093
 23
-0.037
  0
SOLID
  8
L3
 10
-80.095
 20
-0.03
 11
-80.096
 21
-0.027
 12
-80.096
 22
-0.029
 13
-80.096
 23
-0.029
  0
SOLID
  8
L3
 10
-80.098
 20
-0.017
 11
-80.099
 21
-0.01
 12
-80.099
 22
-0.017
 13
-80.099
 23
-0.017
  0
SOLID
  8
L4
 10
190.0
 20
7.0
 11
190.0
 21
25.0
 12
160.0
 22
7.0
 13
160.0
 23
7.0
  0
SOLID
  8
L4
 10
190.0
 20
25.0
 11
160.0
 21
7.0
 12
-80.0
 22
7.0
 13
-80.0
 23
7.0
  0
SOLID
  8
L4
 10
160.0
 20
7.0
 11
-80.0
 21
7.0
 12
160.0
 22
-7.0
 13
160.0
 23
-7.0
  0
SOLID
  8
L4
 10
-80.0
 20
7.0
 11
160.0
 21
-7.0
 12
190.0
 22
-25.0
 13
190.0
 23
-25.0
  0
SOLID
  8
L4
 10
160.0
 20
-7.0
 11
190.0
 21
-25.0
 12
190.0
 22
-7.0
 13
190.0
 23
-7.0
  0
SOLID
  8
L4
 10
-110.0
 20
25.0
 11
-110.0
 21
7.0
 12
-80.0
 22
7.0
 13
-80.0
 23
7.0
  0
SOLID
  8
L4
 10
-110.0
 20
25.0
 11
-80.0
 21
7.0
 12
190.0
 22
25.0
 13
190.0
 23
25.0
  0
SOLID
  8
L4
 10
190.0
 20
-25.0
 11
-80.0
 21
7.0
 12
-80.0
 22
-7.0
 13
-80.0
 23
-7.0
  0
SOLID
  8
L4
 10
190.0
 20
-25.0
 11
-80.0
 21
-7.0
 12
-110.0
 22
-7.0
 13
-110.0
 23
-7.0
  0
SOLID
  8
L4
 10
190.0
 20
-25.0
 11
-110.0
 21
-7.0
 12
-110.0
 22
-25.0
 13
-110.0
 23
-25.0
  0
SOLID
  8
L5
 10
0.0
 20
-4.0
 11
0.0
 21
-7.0
 12
190.0
 22
-25.0
 13
190.0
 23
-25.0
  0
SOLID
  8
L5
 10
0.0
 20
-4.0
 11
190.0
 21
-25.0
 12
80.0
 22
-7.0
 13
80.0
 23
-7.0
  0
SOLID
  8
L5
 10
0.0
 20
-4.0
 11
80.0
 21
-7.0
 12
80.0
 22
-4.0
 13
80.0
 23
-4.0
  0
SOLID
  8
L5
 10
-110.0
 20
-7.0
 11
-110.0
 21
-25.0
 12
190.0
 22
-25.0
 13
190.0
 23
-25.0
  0
SOLID
  8
L5
 10
-110.0
 20
-7.0
 11
190.0
 21
-25.0
 12
0.0
 22
-7.0
 13
0.0
 23
-7.0
  0
SOLID
  8
L5
 10
80.0
 20
-7.0
 11
190.0
 21
-25.0
 12
190.0
 22
-7.0
 13
190.0
 23
-7.0
  0
SOLID
  8
L5
 10
0.0
 20
4.0
 11
80.0
 21
4.0
 12
0.0
 22
7.0
 13
0.0
 23
7.0
  0
SOLID
  8
L5
 10
80.0
 20
4.0
 11
0.0
 21
7.0
 12
80.0
 22
7.0
 13
80.0
 23
7.0
  0
SOLID
  8
L5
 10
0.0
 20
7.0
 11
80.0
 21
7.0
 12
190.0
 22
25.0
 13
190.0
 23
25.0
  0
SOLID
  8
L5
 10
80.0
 20
7.0
 11
190.0
 21
25.0
 12
190.0
 22
7.0
 13
190.0
 23
7.0
  0
SOLID
  8
L5
 10
-110.0
 20
25.0
 11
-110.0
 21
7.0
 12
0.0
 22
7.0
 13
0.0
 23
7.0
  0
SOLID
  8
L5
 10
-110.0
 20
25.0
 11
0.0
 21
7.0
 12
190.0
 22
25.0
 13
190.0
 23
25.0
  0
SOLID
  8
L8
 10
-89.0
 20
-7.0
 11
-109.0
 21
-7.0
 12
-109.0
 22
-25.0
 13
-109.0
 23
-25.0
  0
SOLID
  8
L8
 10
-89.0
 20
-7.0
 11
-109.0
 21
-25.0
 12
-89.0
 22
-25.0
 13
-89.0
 23
-25.0
  0
SOLID
  8
L8
 10
189.0
 20
-7.0
 11
169.0
 21
-7.0
 12
169.0
 22
-25.0
 13
169.0
 23
-25.0
  0
SOLID
  8
L8
 10
189.0
 20
-7.0
 11
169.0
 21
-25.0
 12
189.0
 22
-25.0
 13
189.0
 23
-25.0
  0
SOLID
  8
L8
 10
79.5
 20
0.75
 11
0.5
 21
0.75
 12
0.5
 22
-0.75
 13
0.5
 23
-0.75
  0
SOLID
  8
L8
 10
79.5
 20
0.75
 11
0.5
 21
-0.75
 12
79.5
 22
-0.75
 13
79.5
 23
-0.75
  0
SOLID
  8
L8
 10
-109.0
 20
25.0
 11
-109.0
 21
7.0
 12
-89.0
 22
7.0
 13
-89.0
 23
7.0
  0
SOLID
  8
L8
 10
-109.0
 20
25.0
 11
-89.0
 21
7.0
 12
-89.0
 22
25.0
 13
-89.0
 23
25.0
  0
SOLID
  8
L8
 10
169.0
 20
25.0
 11
169.0
 21
7.0
 12
189.0
 22
7.0
 13
189.0
 23
7.0
  0
SOLID
  8
L8
 10
169.0
 20
25.0
 11
189.0
 21
7.0
 12
189.0
 22
25.0
 13
189.0
 23
25.0
  0
SOLID
  8
L7
 10
-90.0
 20
-8.0
 11
-108.0
 21
-8.0
 12
-108.0
 22
-24.0
 13
-108.0
 23
-24.0
  0
SOLID
  8
L7
 10
-90.0
 20
-8.0
 11
-108.0
 21
-24.0
 12
-90.0
 22
-24.0
 13
-90.0
 23
-24.0
  0
SOLID
  8
L7
 10
188.0
 20
-8.0
 11
170.0
 21
-8.0
 12
170.0
 22
-24.0
 13
170.0
 23
-24.0
  0
SOLID
  8
L7
 10
188.0
 20
-8.0
 11
170.0
 21
-24.0
 12
188.0
 22
-24.0
 13
188.0
 23
-24.0
  0
SOLID
  8
L7
 10
-90.0
 20
24.0
 11
-108.0
 21
24.0
 12
-108.0
 22
8.0
 13
-108.0
 23
8.0
  0
SOLID
  8
L7
 10
-90.0
 20
24.0
 11
-108.0
 21
8.0
 12
-90.0
 22
8.0
 13
-90.0
 23
8.0
  0
SOLID
  8
L7
 10
188.0
 20
24.0
 11
170.0
 21
24.0
 12
170.0
 22
8.0
 13
170.0
 23
8.0
  0
SOLID
  8
L7
 10
188.0
 20
24.0
 11
170.0
 21
8.0
 12
188.0
 22
8.0
 13
188.0
 23
8.0
  0
SOLID
  8
L9
 10
-110.0
 20
-25.0
 11
-88.0
 21
-25.0
 12
-110.0
 22
135.0
 13
-110.0
 23
135.0
  0
SOLID
  8
L9
 10
-88.0
 20
-25.0
 11
-110.0
 21
135.0
 12
-88.0
 22
25.0
 13
-88.0
 23
25.0
  0
SOLID
  8
L9
 10
-110.0
 20
135.0
 11
-88.0
 21
25.0
 12
-23.0
 22
135.0
 13
-23.0
 23
135.0
  0
SOLID
  8
L9
 10
-88.0
 20
25.0
 11
-23.0
 21
135.0
 12
-23.0
 22
55.0
 13
-23.0
 23
55.0
  0
SOLID
  8
L9
 10
85.0
 20
55.0
 11
85.0
 21
135.0
 12
45.0
 22
25.0
 13
45.0
 23
25.0
  0
SOLID
  8
L9
 10
85.0
 20
135.0
 11
45.0
 21
25.0
 12
35.0
 22
25.0
 13
35.0
 23
25.0
  0
SOLID
  8
L9
 10
45.0
 20
25.0
 11
35.0
 21
25.0
 12
45.0
 22
5.0
 13
45.0
 23
5.0
  0
SOLID
  8
L9
 10
35.0
 20
25.0
 11
45.0
 21
5.0
 12
35.0
 22
5.0
 13
35.0
 23
5.0
  0
SOLID
  8
L9
 10
45.0
 20
5.0
 11
35.0
 21
5.0
 12
80.0
 22
-5.0
 13
80.0
 23
-5.0
  0
SOLID
  8
L9
 10
35.0
 20
5.0
 11
80.0
 21
-5.0
 12
0.0
 22
5.0
 13
0.0
 23
5.0
  0
SOLID
  8
L9
 10
80.0
 20
-5.0
 11
0.0
 21
5.0
 12
0.0
 22
-5.0
 13
0.0
 23
-5.0
  0
SOLID
  8
L9
 10
-5.0
 20
135.0
 11
-5.0
 21
55.0
 12
35.0
 22
25.0
 13
35.0
 23
25.0
  0
SOLID
  8
L9
 10
-5.0
 20
135.0
 11
35.0
 21
25.0
 12
85.0
 22
135.0
 13
85.0
 23
135.0
  0
SOLID
  8
L9
 10
45.0
 20
5.0
 11
80.0
 21
-5.0
 12
80.0
 22
5.0
 13
80.0
 23
5.0
  0
SOLID
  8
L9
 10
168.0
 20
25.0
 11
168.0
 21
-25.0
 12
190.0
 22
-25.0
 13
190.0
 23
-25.0
  0
SOLID
  8
L9
 10
168.0
 20
25.0
 11
190.0
 21
-25.0
 12
190.0
 22
135.0
 13
190.0
 23
135.0
  0
SOLID
  8
L9
 10
168.0
 20
25.0
 11
190.0
 21
135.0
 12
103.0
 22
135.0
 13
103.0
 23
135.0
  0
SOLID
  8
L9
 10
168.0
 20
25.0
 11
103.0
 21
135.0
 12
103.0
 22
55.0
 13
103.0
 23
55.0
  0
SOLID
  8
L10
 10
-110.0
 20
0.75
 11
-110.0
 21
-0.75
 12
190.0
 22
-0.75
 13
190.0
 23
-0.75
  0
SOLID
  8
L10
 10
-110.0
 20
0.75
 11
190.0
 21
-0.75
 12
190.0
 22
0.75
 13
190.0
 23
0.75
  0
SOLID
  8
L11
 10
-110.0
 20
135.0
 11
-110.0
 21
-25.0
 12
190.0
 22
-25.0
 13
190.0
 23
-25.0
  0
SOLID
  8
L11
 10
-110.0
 20
135.0
 11
190.0
 21
-25.0
 12
190.0
 22
135.0
 13
190.0
 23
135.0
  0
ENDSEC
  0
EOF
