  0
SECTION
  2
HEADER
  9
$ACADVER
  1
AC1009
  9
$INSBASE
 10
0.0
 20
0.0
 30
0.0
  9
$EXTMIN
 10
-110.0
 20
-1.25
 30
0.0
  9
$EXTMAX
 10
190.0
 20
2135.0
 30
0.0
  9
$LIMMIN
 10
-110.0
 20
-1.25
  9
$LIMMAX
 10
190.0
 20
2135.0
  9
$DIMSCALE
 40
1.0
  9
$LUNITS
 70
     2
  9
$LUPREC
 70
     9
999
LinkCAD 5.7.0 Build 4508
  0
ENDSEC
  0
SECTION
  2
TABLES
  0
TABLE
  2
VPORT
 70
     1
  0
VPORT
  2
*ACTIVE
 70
     0
 10
0.0
 20
0.0
 11
1.0
 21
1.0
 12
40.0
 22
1066.875
 13
0.0
 23
0.0
 14
1.0
 24
1.0
 15
0.0
 25
0.0
 16
0.0
 26
0.0
 36
1.0
 17
0.0
 27
0.0
 37
0.0
 40
2136.25
 41
0.14
 42
50.0
 43
0.0
 44
0.0
 50
0.0
 51
0.0
 71
     0
 72
   100
 73
     1
 74
     1
 75
     0
 76
     0
 77
     0
 78
     0
  0
ENDTAB
  0
TABLE
  2
LTYPE
 70
     3
  0
LTYPE
  2
BYBLOCK
 70
     0
  3

 72
    65
 73
     0
 40
0.0
  0
LTYPE
  2
BYLAYER
 70
     0
  3

 72
    65
 73
     0
 40
0.0
  0
LTYPE
  2
CONTINUOUS
 70
     0
  3
Solid line
 72
    65
 73
     0
 40
0.0
  0
ENDTAB
  0
TABLE
  2
LAYER
 70
    10
  0
LAYER
  2
0
 70
    64
 62
     7
  6
CONTINUOUS
  0
LAYER
  2
L1
 70
    64
 62
     1
  6
CONTINUOUS
  0
LAYER
  2
L3
 70
    64
 62
     3
  6
CONTINUOUS
  0
LAYER
  2
L4
 70
    64
 62
     5
  6
CONTINUOUS
  0
LAYER
  2
L5
 70
    64
 62
     2
  6
CONTINUOUS
  0
LAYER
  2
L8
 70
    64
 62
     6
  6
CONTINUOUS
  0
LAYER
  2
L7
 70
    64
 62
     4
  6
CONTINUOUS
  0
LAYER
  2
L9
 70
    64
 62
    40
  6
CONTINUOUS
  0
LAYER
  2
L10
 70
    64
 62
   220
  6
CONTINUOUS
  0
LAYER
  2
L11
 70
    64
 62
   120
  6
CONTINUOUS
  0
ENDTAB
  0
TABLE
  2
STYLE
 70
     0
  0
ENDTAB
  0
TABLE
  2
VIEW
 70
     0
  0
ENDTAB
  0
TABLE
  2
UCS
 70
     0
  0
ENDTAB
  0
TABLE
  2
APPID
 70
     1
  0
APPID
  2
ACAD
 70
     0
  0
ENDTAB
  0
TABLE
  2
DIMSTYLE
 70
     0
  0
ENDTAB
  0
ENDSEC
  0
SECTION
  2
BLOCKS
  0
ENDSEC
  0
SECTION
  2
ENTITIES
  0
SOLID
  8
L1
 10
80.0
 20
1.25
 11
0.0
 21
1.25
 12
-20.0
 22
0.1
 13
-20.0
 23
0.1
  0
SOLID
  8
L1
 10
80.0
 20
1.25
 11
-20.0
 21
0.1
 12
-20.0
 22
-0.1
 13
-20.0
 23
-0.1
  0
SOLID
  8
L1
 10
80.0
 20
1.25
 11
-20.0
 21
-0.1
 12
0.0
 22
-1.25
 13
0.0
 23
-1.25
  0
SOLID
  8
L1
 10
80.0
 20
1.25
 11
0.0
 21
-1.25
 12
80.0
 22
-1.25
 13
80.0
 23
-1.25
  0
SOLID
  8
L1
 10
80.0
 20
1.25
 11
80.0
 21
-1.25
 12
100.0
 22
-0.1
 13
100.0
 23
-0.1
  0
SOLID
  8
L1
 10
80.0
 20
1.25
 11
100.0
 21
-0.1
 12
100.0
 22
0.1
 13
100.0
 23
0.1
  0
SOLID
  8
L3
 10
-80.098
 20
400.017
 11
-80.099
 21
400.017
 12
-80.098
 22
399.983
 13
-80.098
 23
399.983
  0
SOLID
  8
L3
 10
-80.099
 20
400.017
 11
-80.098
 21
399.983
 12
-80.099
 22
400.01
 13
-80.099
 23
400.01
  0
SOLID
  8
L3
 10
-80.098
 20
399.983
 11
-80.099
 21
400.01
 12
-80.099
 22
399.99
 13
-80.099
 23
399.99
  0
SOLID
  8
L3
 10
-80.099
 20
400.01
 11
-80.099
 21
399.99
 12
-80.1
 22
400.01
 13
-80.1
 23
400.01
  0
SOLID
  8
L3
 10
-80.099
 20
399.99
 11
-80.1
 21
400.01
 12
-80.1
 22
399.99
 13
-80.1
 23
399.99
  0
SOLID
  8
L3
 10
-80.097
 20
399.978
 11
-80.097
 21
399.974
 12
-80.096
 22
399.973
 13
-80.096
 23
399.973
  0
SOLID
  8
L3
 10
-80.097
 20
399.978
 11
-80.096
 21
399.973
 12
-80.097
 22
400.022
 13
-80.097
 23
400.022
  0
SOLID
  8
L3
 10
-80.097
 20
399.978
 11
-80.097
 21
400.022
 12
-80.098
 22
400.022
 13
-80.098
 23
400.022
  0
SOLID
  8
L3
 10
-80.097
 20
399.978
 11
-80.098
 21
400.022
 12
-80.098
 22
400.017
 13
-80.098
 23
400.017
  0
SOLID
  8
L3
 10
-80.097
 20
399.978
 11
-80.098
 21
400.017
 12
-80.098
 22
399.983
 13
-80.098
 23
399.983
  0
SOLID
  8
L3
 10
-80.097
 20
399.978
 11
-80.098
 21
399.983
 12
-80.098
 22
399.978
 13
-80.098
 23
399.978
  0
SOLID
  8
L3
 10
-80.095
 20
400.03
 11
-80.096
 21
400.029
 12
-80.095
 22
399.97
 13
-80.095
 23
399.97
  0
SOLID
  8
L3
 10
-80.096
 20
400.029
 11
-80.095
 21
399.97
 12
-80.096
 22
400.027
 13
-80.096
 23
400.027
  0
SOLID
  8
L3
 10
-80.095
 20
399.97
 11
-80.096
 21
400.027
 12
-80.096
 22
399.973
 13
-80.096
 23
399.973
  0
SOLID
  8
L3
 10
-80.096
 20
400.027
 11
-80.096
 21
399.973
 12
-80.097
 22
400.026
 13
-80.097
 23
400.026
  0
SOLID
  8
L3
 10
-80.096
 20
399.973
 11
-80.097
 21
400.026
 12
-80.097
 22
400.022
 13
-80.097
 23
400.022
  0
SOLID
  8
L3
 10
-80.094
 20
399.967
 11
-80.094
 21
399.965
 12
-80.093
 22
399.964
 13
-80.093
 23
399.964
  0
SOLID
  8
L3
 10
-80.094
 20
399.967
 11
-80.093
 21
399.964
 12
-80.094
 22
400.033
 13
-80.094
 23
400.033
  0
SOLID
  8
L3
 10
-80.094
 20
399.967
 11
-80.094
 21
400.033
 12
-80.095
 22
400.033
 13
-80.095
 23
400.033
  0
SOLID
  8
L3
 10
-80.094
 20
399.967
 11
-80.095
 21
400.033
 12
-80.095
 22
400.03
 13
-80.095
 23
400.03
  0
SOLID
  8
L3
 10
-80.094
 20
399.967
 11
-80.095
 21
400.03
 12
-80.095
 22
399.97
 13
-80.095
 23
399.97
  0
SOLID
  8
L3
 10
-80.094
 20
399.967
 11
-80.095
 21
399.97
 12
-80.095
 22
399.967
 13
-80.095
 23
399.967
  0
SOLID
  8
L3
 10
-80.092
 20
400.038
 11
-80.093
 21
400.037
 12
-80.092
 22
399.962
 13
-80.092
 23
399.962
  0
SOLID
  8
L3
 10
-80.093
 20
400.037
 11
-80.092
 21
399.962
 12
-80.093
 22
400.036
 13
-80.093
 23
400.036
  0
SOLID
  8
L3
 10
-80.092
 20
399.962
 11
-80.093
 21
400.036
 12
-80.093
 22
399.964
 13
-80.093
 23
399.964
  0
SOLID
  8
L3
 10
-80.093
 20
400.036
 11
-80.093
 21
399.964
 12
-80.094
 22
400.035
 13
-80.094
 23
400.035
  0
SOLID
  8
L3
 10
-80.093
 20
399.964
 11
-80.094
 21
400.035
 12
-80.094
 22
400.033
 13
-80.094
 23
400.033
  0
SOLID
  8
L3
 10
-80.091
 20
399.959
 11
-80.091
 21
399.958
 12
-80.09
 22
399.957
 13
-80.09
 23
399.957
  0
SOLID
  8
L3
 10
-80.091
 20
399.959
 11
-80.09
 21
399.957
 12
-80.091
 22
400.041
 13
-80.091
 23
400.041
  0
SOLID
  8
L3
 10
-80.091
 20
399.959
 11
-80.091
 21
400.041
 12
-80.092
 22
400.04
 13
-80.092
 23
400.04
  0
SOLID
  8
L3
 10
-80.091
 20
399.959
 11
-80.092
 21
400.04
 12
-80.092
 22
400.038
 13
-80.092
 23
400.038
  0
SOLID
  8
L3
 10
-80.091
 20
399.959
 11
-80.092
 21
400.038
 12
-80.092
 22
399.962
 13
-80.092
 23
399.962
  0
SOLID
  8
L3
 10
-80.091
 20
399.959
 11
-80.092
 21
399.962
 12
-80.092
 22
399.96
 13
-80.092
 23
399.96
  0
SOLID
  8
L3
 10
-80.089
 20
400.045
 11
-80.09
 21
400.044
 12
-80.089
 22
399.955
 13
-80.089
 23
399.955
  0
SOLID
  8
L3
 10
-80.09
 20
400.044
 11
-80.089
 21
399.955
 12
-80.09
 22
400.043
 13
-80.09
 23
400.043
  0
SOLID
  8
L3
 10
-80.089
 20
399.955
 11
-80.09
 21
400.043
 12
-80.09
 22
399.957
 13
-80.09
 23
399.957
  0
SOLID
  8
L3
 10
-80.09
 20
400.043
 11
-80.09
 21
399.957
 12
-80.091
 22
400.042
 13
-80.091
 23
400.042
  0
SOLID
  8
L3
 10
-80.09
 20
399.957
 11
-80.091
 21
400.042
 12
-80.091
 22
400.041
 13
-80.091
 23
400.041
  0
SOLID
  8
L3
 10
-80.088
 20
399.953
 11
-80.088
 21
399.952
 12
-80.087
 22
399.952
 13
-80.087
 23
399.952
  0
SOLID
  8
L3
 10
-80.088
 20
399.953
 11
-80.087
 21
399.952
 12
-80.088
 22
400.047
 13
-80.088
 23
400.047
  0
SOLID
  8
L3
 10
-80.088
 20
399.953
 11
-80.088
 21
400.047
 12
-80.089
 22
400.046
 13
-80.089
 23
400.046
  0
SOLID
  8
L3
 10
-80.088
 20
399.953
 11
-80.089
 21
400.046
 12
-80.089
 22
400.045
 13
-80.089
 23
400.045
  0
SOLID
  8
L3
 10
-80.088
 20
399.953
 11
-80.089
 21
400.045
 12
-80.089
 22
399.955
 13
-80.089
 23
399.955
  0
SOLID
  8
L3
 10
-80.088
 20
399.953
 11
-80.089
 21
399.955
 12
-80.089
 22
399.954
 13
-80.089
 23
399.954
  0
SOLID
  8
L3
 10
-80.086
 20
400.051
 11
-80.087
 21
400.05
 12
-80.086
 22
399.949
 13
-80.086
 23
399.949
  0
SOLID
  8
L3
 10
-80.087
 20
400.05
 11
-80.086
 21
399.949
 12
-80.087
 22
400.048
 13
-80.087
 23
400.048
  0
SOLID
  8
L3
 10
-80.086
 20
399.949
 11
-80.087
 21
400.048
 12
-80.087
 22
399.952
 13
-80.087
 23
399.952
  0
SOLID
  8
L3
 10
-80.087
 20
400.048
 11
-80.087
 21
399.952
 12
-80.088
 22
400.048
 13
-80.088
 23
400.048
  0
SOLID
  8
L3
 10
-80.087
 20
399.952
 11
-80.088
 21
400.048
 12
-80.088
 22
400.047
 13
-80.088
 23
400.047
  0
SOLID
  8
L3
 10
-80.085
 20
399.948
 11
-80.085
 21
399.947
 12
-80.083
 22
399.945
 13
-80.083
 23
399.945
  0
SOLID
  8
L3
 10
-80.085
 20
399.948
 11
-80.083
 21
399.945
 12
-80.085
 22
400.052
 13
-80.085
 23
400.052
  0
SOLID
  8
L3
 10
-80.085
 20
399.948
 11
-80.085
 21
400.052
 12
-80.086
 22
400.052
 13
-80.086
 23
400.052
  0
SOLID
  8
L3
 10
-80.085
 20
399.948
 11
-80.086
 21
400.052
 12
-80.086
 22
400.051
 13
-80.086
 23
400.051
  0
SOLID
  8
L3
 10
-80.085
 20
399.948
 11
-80.086
 21
400.051
 12
-80.086
 22
399.949
 13
-80.086
 23
399.949
  0
SOLID
  8
L3
 10
-80.085
 20
399.948
 11
-80.086
 21
399.949
 12
-80.086
 22
399.948
 13
-80.086
 23
399.948
  0
SOLID
  8
L3
 10
-80.081
 20
400.058
 11
-80.083
 21
400.056
 12
-80.081
 22
399.942
 13
-80.081
 23
399.942
  0
SOLID
  8
L3
 10
-80.083
 20
400.056
 11
-80.081
 21
399.942
 12
-80.083
 22
400.055
 13
-80.083
 23
400.055
  0
SOLID
  8
L3
 10
-80.081
 20
399.942
 11
-80.083
 21
400.055
 12
-80.083
 22
399.945
 13
-80.083
 23
399.945
  0
SOLID
  8
L3
 10
-80.083
 20
400.055
 11
-80.083
 21
399.945
 12
-80.085
 22
400.053
 13
-80.085
 23
400.053
  0
SOLID
  8
L3
 10
-80.083
 20
399.945
 11
-80.085
 21
400.053
 12
-80.085
 22
400.052
 13
-80.085
 23
400.052
  0
SOLID
  8
L3
 10
-80.08
 20
399.941
 11
-80.08
 21
399.94
 12
-80.079
 22
399.939
 13
-80.079
 23
399.939
  0
SOLID
  8
L3
 10
-80.08
 20
399.941
 11
-80.079
 21
399.939
 12
-80.08
 22
400.059
 13
-80.08
 23
400.059
  0
SOLID
  8
L3
 10
-80.08
 20
399.941
 11
-80.08
 21
400.059
 12
-80.081
 22
400.059
 13
-80.081
 23
400.059
  0
SOLID
  8
L3
 10
-80.08
 20
399.941
 11
-80.081
 21
400.059
 12
-80.081
 22
400.058
 13
-80.081
 23
400.058
  0
SOLID
  8
L3
 10
-80.08
 20
399.941
 11
-80.081
 21
400.058
 12
-80.081
 22
399.942
 13
-80.081
 23
399.942
  0
SOLID
  8
L3
 10
-80.08
 20
399.941
 11
-80.081
 21
399.942
 12
-80.081
 22
399.941
 13
-80.081
 23
399.941
  0
SOLID
  8
L3
 10
-80.078
 20
400.062
 11
-80.079
 21
400.062
 12
-80.078
 22
399.938
 13
-80.078
 23
399.938
  0
SOLID
  8
L3
 10
-80.079
 20
400.062
 11
-80.078
 21
399.938
 12
-80.079
 22
400.061
 13
-80.079
 23
400.061
  0
SOLID
  8
L3
 10
-80.078
 20
399.938
 11
-80.079
 21
400.061
 12
-80.079
 22
399.939
 13
-80.079
 23
399.939
  0
SOLID
  8
L3
 10
-80.079
 20
400.061
 11
-80.079
 21
399.939
 12
-80.08
 22
400.06
 13
-80.08
 23
400.06
  0
SOLID
  8
L3
 10
-80.079
 20
399.939
 11
-80.08
 21
400.06
 12
-80.08
 22
400.059
 13
-80.08
 23
400.059
  0
SOLID
  8
L3
 10
-80.074
 20
399.933
 11
-80.074
 21
399.932
 12
-80.073
 22
399.932
 13
-80.073
 23
399.932
  0
SOLID
  8
L3
 10
-80.074
 20
399.933
 11
-80.073
 21
399.932
 12
-80.074
 22
400.067
 13
-80.074
 23
400.067
  0
SOLID
  8
L3
 10
-80.074
 20
399.933
 11
-80.074
 21
400.067
 12
-80.078
 22
400.063
 13
-80.078
 23
400.063
  0
SOLID
  8
L3
 10
-80.074
 20
399.933
 11
-80.078
 21
400.063
 12
-80.078
 22
400.062
 13
-80.078
 23
400.062
  0
SOLID
  8
L3
 10
-80.074
 20
399.933
 11
-80.078
 21
400.062
 12
-80.078
 22
399.938
 13
-80.078
 23
399.938
  0
SOLID
  8
L3
 10
-80.074
 20
399.933
 11
-80.078
 21
399.938
 12
-80.078
 22
399.937
 13
-80.078
 23
399.937
  0
SOLID
  8
L3
 10
-80.072
 20
400.069
 11
-80.073
 21
400.069
 12
-80.072
 22
399.931
 13
-80.072
 23
399.931
  0
SOLID
  8
L3
 10
-80.073
 20
400.069
 11
-80.072
 21
399.931
 12
-80.073
 22
400.068
 13
-80.073
 23
400.068
  0
SOLID
  8
L3
 10
-80.072
 20
399.931
 11
-80.073
 21
400.068
 12
-80.073
 22
399.932
 13
-80.073
 23
399.932
  0
SOLID
  8
L3
 10
-80.073
 20
400.068
 11
-80.073
 21
399.932
 12
-80.074
 22
400.068
 13
-80.074
 23
400.068
  0
SOLID
  8
L3
 10
-80.073
 20
399.932
 11
-80.074
 21
400.068
 12
-80.074
 22
400.067
 13
-80.074
 23
400.067
  0
SOLID
  8
L3
 10
-80.07
 20
400.071
 11
-80.071
 21
400.071
 12
-80.07
 22
399.929
 13
-80.07
 23
399.929
  0
SOLID
  8
L3
 10
-80.071
 20
400.071
 11
-80.07
 21
399.929
 12
-80.071
 22
400.07
 13
-80.071
 23
400.07
  0
SOLID
  8
L3
 10
-80.07
 20
399.929
 11
-80.071
 21
400.07
 12
-80.071
 22
399.93
 13
-80.071
 23
399.93
  0
SOLID
  8
L3
 10
-80.071
 20
400.07
 11
-80.071
 21
399.93
 12
-80.072
 22
400.069
 13
-80.072
 23
400.069
  0
SOLID
  8
L3
 10
-80.071
 20
399.93
 11
-80.072
 21
400.069
 12
-80.072
 22
399.931
 13
-80.072
 23
399.931
  0
SOLID
  8
L3
 10
-80.068
 20
400.073
 11
-80.069
 21
400.073
 12
-80.068
 22
399.927
 13
-80.068
 23
399.927
  0
SOLID
  8
L3
 10
-80.069
 20
400.073
 11
-80.068
 21
399.927
 12
-80.069
 22
400.072
 13
-80.069
 23
400.072
  0
SOLID
  8
L3
 10
-80.068
 20
399.927
 11
-80.069
 21
400.072
 12
-80.069
 22
399.928
 13
-80.069
 23
399.928
  0
SOLID
  8
L3
 10
-80.069
 20
400.072
 11
-80.069
 21
399.928
 12
-80.07
 22
400.071
 13
-80.07
 23
400.071
  0
SOLID
  8
L3
 10
-80.069
 20
399.928
 11
-80.07
 21
400.071
 12
-80.07
 22
399.929
 13
-80.07
 23
399.929
  0
SOLID
  8
L3
 10
-80.061
 20
400.079
 11
-80.062
 21
400.079
 12
-80.061
 22
399.921
 13
-80.061
 23
399.921
  0
SOLID
  8
L3
 10
-80.062
 20
400.079
 11
-80.061
 21
399.921
 12
-80.062
 22
400.078
 13
-80.062
 23
400.078
  0
SOLID
  8
L3
 10
-80.061
 20
399.921
 11
-80.062
 21
400.078
 12
-80.062
 22
399.922
 13
-80.062
 23
399.922
  0
SOLID
  8
L3
 10
-80.062
 20
400.078
 11
-80.062
 21
399.922
 12
-80.063
 22
400.078
 13
-80.063
 23
400.078
  0
SOLID
  8
L3
 10
-80.062
 20
399.922
 11
-80.063
 21
400.078
 12
-80.063
 22
399.922
 13
-80.063
 23
399.922
  0
SOLID
  8
L3
 10
-80.063
 20
400.078
 11
-80.063
 21
399.922
 12
-80.067
 22
400.074
 13
-80.067
 23
400.074
  0
SOLID
  8
L3
 10
-80.063
 20
399.922
 11
-80.067
 21
400.074
 12
-80.067
 22
399.926
 13
-80.067
 23
399.926
  0
SOLID
  8
L3
 10
-80.067
 20
400.074
 11
-80.067
 21
399.926
 12
-80.068
 22
400.074
 13
-80.068
 23
400.074
  0
SOLID
  8
L3
 10
-80.067
 20
399.926
 11
-80.068
 21
400.074
 12
-80.068
 22
400.073
 13
-80.068
 23
400.073
  0
SOLID
  8
L3
 10
-80.068
 20
399.927
 11
-80.068
 21
399.926
 12
-80.067
 22
399.926
 13
-80.067
 23
399.926
  0
SOLID
  8
L3
 10
-80.068
 20
399.927
 11
-80.067
 21
399.926
 12
-80.068
 22
400.073
 13
-80.068
 23
400.073
  0
SOLID
  8
L3
 10
-80.058
 20
400.081
 11
-80.059
 21
400.081
 12
-80.058
 22
399.919
 13
-80.058
 23
399.919
  0
SOLID
  8
L3
 10
-80.059
 20
400.081
 11
-80.058
 21
399.919
 12
-80.059
 22
400.08
 13
-80.059
 23
400.08
  0
SOLID
  8
L3
 10
-80.058
 20
399.919
 11
-80.059
 21
400.08
 12
-80.059
 22
399.92
 13
-80.059
 23
399.92
  0
SOLID
  8
L3
 10
-80.059
 20
400.08
 11
-80.059
 21
399.92
 12
-80.06
 22
400.08
 13
-80.06
 23
400.08
  0
SOLID
  8
L3
 10
-80.059
 20
399.92
 11
-80.06
 21
400.08
 12
-80.06
 22
399.92
 13
-80.06
 23
399.92
  0
SOLID
  8
L3
 10
-80.06
 20
400.08
 11
-80.06
 21
399.92
 12
-80.061
 22
400.079
 13
-80.061
 23
400.079
  0
SOLID
  8
L3
 10
-80.06
 20
399.92
 11
-80.061
 21
400.079
 12
-80.061
 22
399.921
 13
-80.061
 23
399.921
  0
SOLID
  8
L3
 10
-80.051
 20
400.086
 11
-80.052
 21
400.086
 12
-80.051
 22
399.914
 13
-80.051
 23
399.914
  0
SOLID
  8
L3
 10
-80.052
 20
400.086
 11
-80.051
 21
399.914
 12
-80.052
 22
400.085
 13
-80.052
 23
400.085
  0
SOLID
  8
L3
 10
-80.051
 20
399.914
 11
-80.052
 21
400.085
 12
-80.052
 22
399.915
 13
-80.052
 23
399.915
  0
SOLID
  8
L3
 10
-80.052
 20
400.085
 11
-80.052
 21
399.915
 12
-80.053
 22
400.085
 13
-80.053
 23
400.085
  0
SOLID
  8
L3
 10
-80.052
 20
399.915
 11
-80.053
 21
400.085
 12
-80.053
 22
399.915
 13
-80.053
 23
399.915
  0
SOLID
  8
L3
 10
-80.053
 20
400.085
 11
-80.053
 21
399.915
 12
-80.055
 22
400.083
 13
-80.055
 23
400.083
  0
SOLID
  8
L3
 10
-80.053
 20
399.915
 11
-80.055
 21
400.083
 12
-80.055
 22
399.917
 13
-80.055
 23
399.917
  0
SOLID
  8
L3
 10
-80.055
 20
400.083
 11
-80.055
 21
399.917
 12
-80.056
 22
400.083
 13
-80.056
 23
400.083
  0
SOLID
  8
L3
 10
-80.055
 20
399.917
 11
-80.056
 21
400.083
 12
-80.056
 22
399.917
 13
-80.056
 23
399.917
  0
SOLID
  8
L3
 10
-80.056
 20
400.083
 11
-80.056
 21
399.917
 12
-80.058
 22
400.081
 13
-80.058
 23
400.081
  0
SOLID
  8
L3
 10
-80.056
 20
399.917
 11
-80.058
 21
400.081
 12
-80.058
 22
399.919
 13
-80.058
 23
399.919
  0
SOLID
  8
L3
 10
-80.047
 20
400.088
 11
-80.048
 21
400.088
 12
-80.047
 22
399.912
 13
-80.047
 23
399.912
  0
SOLID
  8
L3
 10
-80.048
 20
400.088
 11
-80.047
 21
399.912
 12
-80.048
 22
400.087
 13
-80.048
 23
400.087
  0
SOLID
  8
L3
 10
-80.047
 20
399.912
 11
-80.048
 21
400.087
 12
-80.048
 22
399.913
 13
-80.048
 23
399.913
  0
SOLID
  8
L3
 10
-80.048
 20
400.087
 11
-80.048
 21
399.913
 12
-80.05
 22
400.087
 13
-80.05
 23
400.087
  0
SOLID
  8
L3
 10
-80.048
 20
399.913
 11
-80.05
 21
400.087
 12
-80.05
 22
399.913
 13
-80.05
 23
399.913
  0
SOLID
  8
L3
 10
-80.05
 20
400.087
 11
-80.05
 21
399.913
 12
-80.051
 22
400.086
 13
-80.051
 23
400.086
  0
SOLID
  8
L3
 10
-80.05
 20
399.913
 11
-80.051
 21
400.086
 12
-80.051
 22
399.914
 13
-80.051
 23
399.914
  0
SOLID
  8
L3
 10
-80.03
 20
400.095
 11
-80.033
 21
400.095
 12
-80.03
 22
399.905
 13
-80.03
 23
399.905
  0
SOLID
  8
L3
 10
-80.033
 20
400.095
 11
-80.03
 21
399.905
 12
-80.033
 22
400.094
 13
-80.033
 23
400.094
  0
SOLID
  8
L3
 10
-80.03
 20
399.905
 11
-80.033
 21
400.094
 12
-80.033
 22
399.906
 13
-80.033
 23
399.906
  0
SOLID
  8
L3
 10
-80.033
 20
400.094
 11
-80.033
 21
399.906
 12
-80.035
 22
400.094
 13
-80.035
 23
400.094
  0
SOLID
  8
L3
 10
-80.033
 20
399.906
 11
-80.035
 21
400.094
 12
-80.035
 22
399.906
 13
-80.035
 23
399.906
  0
SOLID
  8
L3
 10
-80.035
 20
400.094
 11
-80.035
 21
399.906
 12
-80.036
 22
400.093
 13
-80.036
 23
400.093
  0
SOLID
  8
L3
 10
-80.035
 20
399.906
 11
-80.036
 21
400.093
 12
-80.036
 22
399.907
 13
-80.036
 23
399.907
  0
SOLID
  8
L3
 10
-80.036
 20
400.093
 11
-80.036
 21
399.907
 12
-80.037
 22
400.093
 13
-80.037
 23
400.093
  0
SOLID
  8
L3
 10
-80.036
 20
399.907
 11
-80.037
 21
400.093
 12
-80.037
 22
399.907
 13
-80.037
 23
399.907
  0
SOLID
  8
L3
 10
-80.037
 20
400.093
 11
-80.037
 21
399.907
 12
-80.038
 22
400.092
 13
-80.038
 23
400.092
  0
SOLID
  8
L3
 10
-80.037
 20
399.907
 11
-80.038
 21
400.092
 12
-80.038
 22
399.908
 13
-80.038
 23
399.908
  0
SOLID
  8
L3
 10
-80.038
 20
400.092
 11
-80.038
 21
399.908
 12
-80.04
 22
400.092
 13
-80.04
 23
400.092
  0
SOLID
  8
L3
 10
-80.038
 20
399.908
 11
-80.04
 21
400.092
 12
-80.04
 22
399.908
 13
-80.04
 23
399.908
  0
SOLID
  8
L3
 10
-80.04
 20
400.092
 11
-80.04
 21
399.908
 12
-80.041
 22
400.091
 13
-80.041
 23
400.091
  0
SOLID
  8
L3
 10
-80.04
 20
399.908
 11
-80.041
 21
400.091
 12
-80.041
 22
399.909
 13
-80.041
 23
399.909
  0
SOLID
  8
L3
 10
-80.041
 20
400.091
 11
-80.041
 21
399.909
 12
-80.042
 22
400.091
 13
-80.042
 23
400.091
  0
SOLID
  8
L3
 10
-80.041
 20
399.909
 11
-80.042
 21
400.091
 12
-80.042
 22
399.909
 13
-80.042
 23
399.909
  0
SOLID
  8
L3
 10
-80.042
 20
400.091
 11
-80.042
 21
399.909
 12
-80.043
 22
400.09
 13
-80.043
 23
400.09
  0
SOLID
  8
L3
 10
-80.042
 20
399.909
 11
-80.043
 21
400.09
 12
-80.043
 22
399.91
 13
-80.043
 23
399.91
  0
SOLID
  8
L3
 10
-80.043
 20
400.09
 11
-80.043
 21
399.91
 12
-80.044
 22
400.09
 13
-80.044
 23
400.09
  0
SOLID
  8
L3
 10
-80.043
 20
399.91
 11
-80.044
 21
400.09
 12
-80.044
 22
399.91
 13
-80.044
 23
399.91
  0
SOLID
  8
L3
 10
-80.044
 20
400.09
 11
-80.044
 21
399.91
 12
-80.045
 22
400.089
 13
-80.045
 23
400.089
  0
SOLID
  8
L3
 10
-80.044
 20
399.91
 11
-80.045
 21
400.089
 12
-80.045
 22
399.911
 13
-80.045
 23
399.911
  0
SOLID
  8
L3
 10
-80.045
 20
400.089
 11
-80.045
 21
399.911
 12
-80.046
 22
400.089
 13
-80.046
 23
400.089
  0
SOLID
  8
L3
 10
-80.045
 20
399.911
 11
-80.046
 21
400.089
 12
-80.046
 22
399.911
 13
-80.046
 23
399.911
  0
SOLID
  8
L3
 10
-80.046
 20
400.089
 11
-80.046
 21
399.911
 12
-80.047
 22
400.088
 13
-80.047
 23
400.088
  0
SOLID
  8
L3
 10
-80.046
 20
399.911
 11
-80.047
 21
400.088
 12
-80.047
 22
399.912
 13
-80.047
 23
399.912
  0
SOLID
  8
L3
 10
-80.017
 20
400.098
 11
-80.022
 21
400.098
 12
-80.017
 22
399.902
 13
-80.017
 23
399.902
  0
SOLID
  8
L3
 10
-80.022
 20
400.098
 11
-80.017
 21
399.902
 12
-80.022
 22
400.097
 13
-80.022
 23
400.097
  0
SOLID
  8
L3
 10
-80.017
 20
399.902
 11
-80.022
 21
400.097
 12
-80.022
 22
399.903
 13
-80.022
 23
399.903
  0
SOLID
  8
L3
 10
-80.022
 20
400.097
 11
-80.022
 21
399.903
 12
-80.026
 22
400.097
 13
-80.026
 23
400.097
  0
SOLID
  8
L3
 10
-80.022
 20
399.903
 11
-80.026
 21
400.097
 12
-80.026
 22
399.903
 13
-80.026
 23
399.903
  0
SOLID
  8
L3
 10
-80.026
 20
400.097
 11
-80.026
 21
399.903
 12
-80.027
 22
400.096
 13
-80.027
 23
400.096
  0
SOLID
  8
L3
 10
-80.026
 20
399.903
 11
-80.027
 21
400.096
 12
-80.027
 22
399.904
 13
-80.027
 23
399.904
  0
SOLID
  8
L3
 10
-80.027
 20
400.096
 11
-80.027
 21
399.904
 12
-80.029
 22
400.096
 13
-80.029
 23
400.096
  0
SOLID
  8
L3
 10
-80.027
 20
399.904
 11
-80.029
 21
400.096
 12
-80.029
 22
399.904
 13
-80.029
 23
399.904
  0
SOLID
  8
L3
 10
-80.029
 20
400.096
 11
-80.029
 21
399.904
 12
-80.03
 22
400.095
 13
-80.03
 23
400.095
  0
SOLID
  8
L3
 10
-80.029
 20
399.904
 11
-80.03
 21
400.095
 12
-80.03
 22
399.905
 13
-80.03
 23
399.905
  0
SOLID
  8
L3
 10
-80.01
 20
399.901
 11
-80.01
 21
399.9
 12
-80.0
 22
399.9
 13
-80.0
 23
399.9
  0
SOLID
  8
L3
 10
-80.01
 20
399.901
 11
-80.0
 21
399.9
 12
-80.01
 22
400.099
 13
-80.01
 23
400.099
  0
SOLID
  8
L3
 10
-80.01
 20
399.901
 11
-80.01
 21
400.099
 12
-80.017
 22
400.099
 13
-80.017
 23
400.099
  0
SOLID
  8
L3
 10
-80.01
 20
399.901
 11
-80.017
 21
400.099
 12
-80.017
 22
400.098
 13
-80.017
 23
400.098
  0
SOLID
  8
L3
 10
-80.01
 20
399.901
 11
-80.017
 21
400.098
 12
-80.017
 22
399.902
 13
-80.017
 23
399.902
  0
SOLID
  8
L3
 10
-80.01
 20
399.901
 11
-80.017
 21
399.902
 12
-80.017
 22
399.901
 13
-80.017
 23
399.901
  0
SOLID
  8
L3
 10
-80.01
 20
400.1
 11
-80.0
 21
399.9
 12
-80.0
 22
400.1
 13
-80.0
 23
400.1
  0
SOLID
  8
L3
 10
-80.0
 20
399.9
 11
-80.0
 21
400.1
 12
-20.0
 22
399.25
 13
-20.0
 23
399.25
  0
SOLID
  8
L3
 10
-80.0
 20
400.1
 11
-20.0
 21
399.25
 12
-20.0
 22
400.75
 13
-20.0
 23
400.75
  0
SOLID
  8
L3
 10
-20.0
 20
399.25
 11
-20.0
 21
400.75
 12
100.0
 22
399.25
 13
100.0
 23
399.25
  0
SOLID
  8
L3
 10
-20.0
 20
400.75
 11
100.0
 21
399.25
 12
100.0
 22
400.75
 13
100.0
 23
400.75
  0
SOLID
  8
L3
 10
100.0
 20
399.25
 11
100.0
 21
400.75
 12
160.0
 22
399.9
 13
160.0
 23
399.9
  0
SOLID
  8
L3
 10
100.0
 20
400.75
 11
160.0
 21
399.9
 12
160.0
 22
400.1
 13
160.0
 23
400.1
  0
SOLID
  8
L3
 10
160.0
 20
399.9
 11
160.0
 21
400.1
 12
160.01
 22
399.9
 13
160.01
 23
399.9
  0
SOLID
  8
L3
 10
160.0
 20
400.1
 11
160.01
 21
399.9
 12
160.01
 22
400.1
 13
160.01
 23
400.1
  0
SOLID
  8
L3
 10
160.01
 20
399.9
 11
160.01
 21
400.1
 12
160.01
 22
399.901
 13
160.01
 23
399.901
  0
SOLID
  8
L3
 10
160.01
 20
400.1
 11
160.01
 21
399.901
 12
160.01
 22
400.099
 13
160.01
 23
400.099
  0
SOLID
  8
L3
 10
160.01
 20
399.901
 11
160.01
 21
400.099
 12
160.017
 22
399.901
 13
160.017
 23
399.901
  0
SOLID
  8
L3
 10
160.01
 20
400.099
 11
160.017
 21
399.901
 12
160.017
 22
400.099
 13
160.017
 23
400.099
  0
SOLID
  8
L3
 10
160.017
 20
399.901
 11
160.017
 21
400.099
 12
160.017
 22
399.902
 13
160.017
 23
399.902
  0
SOLID
  8
L3
 10
160.017
 20
400.099
 11
160.017
 21
399.902
 12
160.017
 22
400.098
 13
160.017
 23
400.098
  0
SOLID
  8
L3
 10
160.017
 20
399.902
 11
160.017
 21
400.098
 12
160.022
 22
399.902
 13
160.022
 23
399.902
  0
SOLID
  8
L3
 10
160.017
 20
400.098
 11
160.022
 21
399.902
 12
160.022
 22
400.098
 13
160.022
 23
400.098
  0
SOLID
  8
L3
 10
160.022
 20
399.902
 11
160.022
 21
400.098
 12
160.022
 22
399.903
 13
160.022
 23
399.903
  0
SOLID
  8
L3
 10
160.022
 20
400.098
 11
160.022
 21
399.903
 12
160.022
 22
400.097
 13
160.022
 23
400.097
  0
SOLID
  8
L3
 10
160.022
 20
399.903
 11
160.022
 21
400.097
 12
160.026
 22
399.903
 13
160.026
 23
399.903
  0
SOLID
  8
L3
 10
160.022
 20
400.097
 11
160.026
 21
399.903
 12
160.026
 22
400.097
 13
160.026
 23
400.097
  0
SOLID
  8
L3
 10
160.026
 20
399.903
 11
160.026
 21
400.097
 12
160.027
 22
399.904
 13
160.027
 23
399.904
  0
SOLID
  8
L3
 10
160.026
 20
400.097
 11
160.027
 21
399.904
 12
160.027
 22
400.096
 13
160.027
 23
400.096
  0
SOLID
  8
L3
 10
160.027
 20
399.904
 11
160.027
 21
400.096
 12
160.029
 22
399.904
 13
160.029
 23
399.904
  0
SOLID
  8
L3
 10
160.027
 20
400.096
 11
160.029
 21
399.904
 12
160.029
 22
400.096
 13
160.029
 23
400.096
  0
SOLID
  8
L3
 10
160.029
 20
399.904
 11
160.029
 21
400.096
 12
160.03
 22
399.905
 13
160.03
 23
399.905
  0
SOLID
  8
L3
 10
160.029
 20
400.096
 11
160.03
 21
399.905
 12
160.03
 22
400.095
 13
160.03
 23
400.095
  0
SOLID
  8
L3
 10
160.03
 20
399.905
 11
160.03
 21
400.095
 12
160.033
 22
399.905
 13
160.033
 23
399.905
  0
SOLID
  8
L3
 10
160.03
 20
400.095
 11
160.033
 21
399.905
 12
160.033
 22
400.095
 13
160.033
 23
400.095
  0
SOLID
  8
L3
 10
160.033
 20
399.905
 11
160.033
 21
400.095
 12
160.033
 22
399.906
 13
160.033
 23
399.906
  0
SOLID
  8
L3
 10
160.033
 20
400.095
 11
160.033
 21
399.906
 12
160.033
 22
400.094
 13
160.033
 23
400.094
  0
SOLID
  8
L3
 10
160.033
 20
399.906
 11
160.033
 21
400.094
 12
160.035
 22
399.906
 13
160.035
 23
399.906
  0
SOLID
  8
L3
 10
160.033
 20
400.094
 11
160.035
 21
399.906
 12
160.035
 22
400.094
 13
160.035
 23
400.094
  0
SOLID
  8
L3
 10
160.035
 20
399.906
 11
160.035
 21
400.094
 12
160.036
 22
399.907
 13
160.036
 23
399.907
  0
SOLID
  8
L3
 10
160.035
 20
400.094
 11
160.036
 21
399.907
 12
160.036
 22
400.093
 13
160.036
 23
400.093
  0
SOLID
  8
L3
 10
160.036
 20
399.907
 11
160.036
 21
400.093
 12
160.037
 22
399.907
 13
160.037
 23
399.907
  0
SOLID
  8
L3
 10
160.036
 20
400.093
 11
160.037
 21
399.907
 12
160.037
 22
400.093
 13
160.037
 23
400.093
  0
SOLID
  8
L3
 10
160.037
 20
399.907
 11
160.037
 21
400.093
 12
160.038
 22
399.908
 13
160.038
 23
399.908
  0
SOLID
  8
L3
 10
160.037
 20
400.093
 11
160.038
 21
399.908
 12
160.038
 22
400.092
 13
160.038
 23
400.092
  0
SOLID
  8
L3
 10
160.038
 20
399.908
 11
160.038
 21
400.092
 12
160.04
 22
399.908
 13
160.04
 23
399.908
  0
SOLID
  8
L3
 10
160.038
 20
400.092
 11
160.04
 21
399.908
 12
160.04
 22
400.092
 13
160.04
 23
400.092
  0
SOLID
  8
L3
 10
160.04
 20
399.908
 11
160.04
 21
400.092
 12
160.041
 22
399.909
 13
160.041
 23
399.909
  0
SOLID
  8
L3
 10
160.04
 20
400.092
 11
160.041
 21
399.909
 12
160.041
 22
400.091
 13
160.041
 23
400.091
  0
SOLID
  8
L3
 10
160.041
 20
399.909
 11
160.041
 21
400.091
 12
160.042
 22
399.909
 13
160.042
 23
399.909
  0
SOLID
  8
L3
 10
160.041
 20
400.091
 11
160.042
 21
399.909
 12
160.042
 22
400.091
 13
160.042
 23
400.091
  0
SOLID
  8
L3
 10
160.042
 20
399.909
 11
160.042
 21
400.091
 12
160.043
 22
399.91
 13
160.043
 23
399.91
  0
SOLID
  8
L3
 10
160.042
 20
400.091
 11
160.043
 21
399.91
 12
160.043
 22
400.09
 13
160.043
 23
400.09
  0
SOLID
  8
L3
 10
160.043
 20
399.91
 11
160.043
 21
400.09
 12
160.044
 22
399.91
 13
160.044
 23
399.91
  0
SOLID
  8
L3
 10
160.043
 20
400.09
 11
160.044
 21
399.91
 12
160.044
 22
400.09
 13
160.044
 23
400.09
  0
SOLID
  8
L3
 10
160.044
 20
399.91
 11
160.044
 21
400.09
 12
160.045
 22
399.911
 13
160.045
 23
399.911
  0
SOLID
  8
L3
 10
160.044
 20
400.09
 11
160.045
 21
399.911
 12
160.045
 22
400.089
 13
160.045
 23
400.089
  0
SOLID
  8
L3
 10
160.045
 20
399.911
 11
160.045
 21
400.089
 12
160.046
 22
399.911
 13
160.046
 23
399.911
  0
SOLID
  8
L3
 10
160.045
 20
400.089
 11
160.046
 21
399.911
 12
160.046
 22
400.089
 13
160.046
 23
400.089
  0
SOLID
  8
L3
 10
160.046
 20
399.911
 11
160.046
 21
400.089
 12
160.047
 22
399.912
 13
160.047
 23
399.912
  0
SOLID
  8
L3
 10
160.046
 20
400.089
 11
160.047
 21
399.912
 12
160.047
 22
400.088
 13
160.047
 23
400.088
  0
SOLID
  8
L3
 10
160.047
 20
399.912
 11
160.047
 21
400.088
 12
160.048
 22
399.912
 13
160.048
 23
399.912
  0
SOLID
  8
L3
 10
160.047
 20
400.088
 11
160.048
 21
399.912
 12
160.048
 22
400.088
 13
160.048
 23
400.088
  0
SOLID
  8
L3
 10
160.048
 20
399.912
 11
160.048
 21
400.088
 12
160.048
 22
399.913
 13
160.048
 23
399.913
  0
SOLID
  8
L3
 10
160.048
 20
400.088
 11
160.048
 21
399.913
 12
160.048
 22
400.087
 13
160.048
 23
400.087
  0
SOLID
  8
L3
 10
160.048
 20
399.913
 11
160.048
 21
400.087
 12
160.05
 22
399.913
 13
160.05
 23
399.913
  0
SOLID
  8
L3
 10
160.048
 20
400.087
 11
160.05
 21
399.913
 12
160.05
 22
400.087
 13
160.05
 23
400.087
  0
SOLID
  8
L3
 10
160.05
 20
399.913
 11
160.05
 21
400.087
 12
160.051
 22
399.914
 13
160.051
 23
399.914
  0
SOLID
  8
L3
 10
160.05
 20
400.087
 11
160.051
 21
399.914
 12
160.051
 22
400.086
 13
160.051
 23
400.086
  0
SOLID
  8
L3
 10
160.051
 20
399.914
 11
160.051
 21
400.086
 12
160.052
 22
399.914
 13
160.052
 23
399.914
  0
SOLID
  8
L3
 10
160.051
 20
400.086
 11
160.052
 21
399.914
 12
160.052
 22
400.086
 13
160.052
 23
400.086
  0
SOLID
  8
L3
 10
160.052
 20
399.914
 11
160.052
 21
400.086
 12
160.052
 22
399.915
 13
160.052
 23
399.915
  0
SOLID
  8
L3
 10
160.052
 20
400.086
 11
160.052
 21
399.915
 12
160.052
 22
400.085
 13
160.052
 23
400.085
  0
SOLID
  8
L3
 10
160.052
 20
399.915
 11
160.052
 21
400.085
 12
160.053
 22
399.915
 13
160.053
 23
399.915
  0
SOLID
  8
L3
 10
160.052
 20
400.085
 11
160.053
 21
399.915
 12
160.053
 22
400.085
 13
160.053
 23
400.085
  0
SOLID
  8
L3
 10
160.053
 20
399.915
 11
160.053
 21
400.085
 12
160.055
 22
399.917
 13
160.055
 23
399.917
  0
SOLID
  8
L3
 10
160.053
 20
400.085
 11
160.055
 21
399.917
 12
160.055
 22
400.083
 13
160.055
 23
400.083
  0
SOLID
  8
L3
 10
160.055
 20
399.917
 11
160.055
 21
400.083
 12
160.056
 22
399.917
 13
160.056
 23
399.917
  0
SOLID
  8
L3
 10
160.055
 20
400.083
 11
160.056
 21
399.917
 12
160.056
 22
400.083
 13
160.056
 23
400.083
  0
SOLID
  8
L3
 10
160.056
 20
399.917
 11
160.056
 21
400.083
 12
160.058
 22
399.919
 13
160.058
 23
399.919
  0
SOLID
  8
L3
 10
160.056
 20
400.083
 11
160.058
 21
399.919
 12
160.058
 22
400.081
 13
160.058
 23
400.081
  0
SOLID
  8
L3
 10
160.058
 20
399.919
 11
160.058
 21
400.081
 12
160.059
 22
399.919
 13
160.059
 23
399.919
  0
SOLID
  8
L3
 10
160.058
 20
400.081
 11
160.059
 21
399.919
 12
160.059
 22
400.081
 13
160.059
 23
400.081
  0
SOLID
  8
L3
 10
160.059
 20
399.919
 11
160.059
 21
400.081
 12
160.059
 22
399.92
 13
160.059
 23
399.92
  0
SOLID
  8
L3
 10
160.059
 20
400.081
 11
160.059
 21
399.92
 12
160.059
 22
400.08
 13
160.059
 23
400.08
  0
SOLID
  8
L3
 10
160.059
 20
399.92
 11
160.059
 21
400.08
 12
160.06
 22
399.92
 13
160.06
 23
399.92
  0
SOLID
  8
L3
 10
160.059
 20
400.08
 11
160.06
 21
399.92
 12
160.06
 22
400.08
 13
160.06
 23
400.08
  0
SOLID
  8
L3
 10
160.06
 20
399.92
 11
160.06
 21
400.08
 12
160.061
 22
399.921
 13
160.061
 23
399.921
  0
SOLID
  8
L3
 10
160.06
 20
400.08
 11
160.061
 21
399.921
 12
160.061
 22
400.079
 13
160.061
 23
400.079
  0
SOLID
  8
L3
 10
160.061
 20
399.921
 11
160.061
 21
400.079
 12
160.062
 22
399.921
 13
160.062
 23
399.921
  0
SOLID
  8
L3
 10
160.061
 20
400.079
 11
160.062
 21
399.921
 12
160.062
 22
400.079
 13
160.062
 23
400.079
  0
SOLID
  8
L3
 10
160.062
 20
399.921
 11
160.062
 21
400.079
 12
160.062
 22
399.922
 13
160.062
 23
399.922
  0
SOLID
  8
L3
 10
160.062
 20
400.079
 11
160.062
 21
399.922
 12
160.062
 22
400.078
 13
160.062
 23
400.078
  0
SOLID
  8
L3
 10
160.062
 20
399.922
 11
160.062
 21
400.078
 12
160.063
 22
399.922
 13
160.063
 23
399.922
  0
SOLID
  8
L3
 10
160.062
 20
400.078
 11
160.063
 21
399.922
 12
160.063
 22
400.078
 13
160.063
 23
400.078
  0
SOLID
  8
L3
 10
160.063
 20
399.922
 11
160.063
 21
400.078
 12
160.067
 22
399.926
 13
160.067
 23
399.926
  0
SOLID
  8
L3
 10
160.063
 20
400.078
 11
160.067
 21
399.926
 12
160.067
 22
400.074
 13
160.067
 23
400.074
  0
SOLID
  8
L3
 10
160.067
 20
399.926
 11
160.067
 21
400.074
 12
160.068
 22
399.926
 13
160.068
 23
399.926
  0
SOLID
  8
L3
 10
160.067
 20
400.074
 11
160.068
 21
399.926
 12
160.068
 22
400.074
 13
160.068
 23
400.074
  0
SOLID
  8
L3
 10
160.068
 20
399.926
 11
160.068
 21
400.074
 12
160.068
 22
399.927
 13
160.068
 23
399.927
  0
SOLID
  8
L3
 10
160.068
 20
400.074
 11
160.068
 21
399.927
 12
160.068
 22
400.073
 13
160.068
 23
400.073
  0
SOLID
  8
L3
 10
160.068
 20
399.927
 11
160.068
 21
400.073
 12
160.069
 22
399.927
 13
160.069
 23
399.927
  0
SOLID
  8
L3
 10
160.068
 20
400.073
 11
160.069
 21
399.927
 12
160.069
 22
400.073
 13
160.069
 23
400.073
  0
SOLID
  8
L3
 10
160.069
 20
399.927
 11
160.069
 21
400.073
 12
160.069
 22
399.928
 13
160.069
 23
399.928
  0
SOLID
  8
L3
 10
160.069
 20
400.073
 11
160.069
 21
399.928
 12
160.069
 22
400.072
 13
160.069
 23
400.072
  0
SOLID
  8
L3
 10
160.069
 20
399.928
 11
160.069
 21
400.072
 12
160.07
 22
399.929
 13
160.07
 23
399.929
  0
SOLID
  8
L3
 10
160.069
 20
400.072
 11
160.07
 21
399.929
 12
160.07
 22
400.071
 13
160.07
 23
400.071
  0
SOLID
  8
L3
 10
160.07
 20
399.929
 11
160.07
 21
400.071
 12
160.071
 22
399.929
 13
160.071
 23
399.929
  0
SOLID
  8
L3
 10
160.07
 20
400.071
 11
160.071
 21
399.929
 12
160.071
 22
400.071
 13
160.071
 23
400.071
  0
SOLID
  8
L3
 10
160.071
 20
399.929
 11
160.071
 21
400.071
 12
160.071
 22
399.93
 13
160.071
 23
399.93
  0
SOLID
  8
L3
 10
160.071
 20
400.071
 11
160.071
 21
399.93
 12
160.071
 22
400.07
 13
160.071
 23
400.07
  0
SOLID
  8
L3
 10
160.071
 20
399.93
 11
160.071
 21
400.07
 12
160.072
 22
399.931
 13
160.072
 23
399.931
  0
SOLID
  8
L3
 10
160.071
 20
400.07
 11
160.072
 21
399.931
 12
160.072
 22
400.069
 13
160.072
 23
400.069
  0
SOLID
  8
L3
 10
160.072
 20
399.931
 11
160.072
 21
400.069
 12
160.073
 22
399.931
 13
160.073
 23
399.931
  0
SOLID
  8
L3
 10
160.072
 20
400.069
 11
160.073
 21
399.931
 12
160.073
 22
400.069
 13
160.073
 23
400.069
  0
SOLID
  8
L3
 10
160.073
 20
399.931
 11
160.073
 21
400.069
 12
160.073
 22
399.932
 13
160.073
 23
399.932
  0
SOLID
  8
L3
 10
160.073
 20
400.069
 11
160.073
 21
399.932
 12
160.073
 22
400.068
 13
160.073
 23
400.068
  0
SOLID
  8
L3
 10
160.073
 20
399.932
 11
160.073
 21
400.068
 12
160.074
 22
399.932
 13
160.074
 23
399.932
  0
SOLID
  8
L3
 10
160.073
 20
400.068
 11
160.074
 21
399.932
 12
160.074
 22
400.068
 13
160.074
 23
400.068
  0
SOLID
  8
L3
 10
160.074
 20
399.932
 11
160.074
 21
400.068
 12
160.074
 22
399.933
 13
160.074
 23
399.933
  0
SOLID
  8
L3
 10
160.074
 20
400.068
 11
160.074
 21
399.933
 12
160.074
 22
400.067
 13
160.074
 23
400.067
  0
SOLID
  8
L3
 10
160.074
 20
399.933
 11
160.074
 21
400.067
 12
160.078
 22
399.937
 13
160.078
 23
399.937
  0
SOLID
  8
L3
 10
160.074
 20
400.067
 11
160.078
 21
399.937
 12
160.078
 22
400.063
 13
160.078
 23
400.063
  0
SOLID
  8
L3
 10
160.078
 20
399.937
 11
160.078
 21
400.063
 12
160.078
 22
399.938
 13
160.078
 23
399.938
  0
SOLID
  8
L3
 10
160.078
 20
400.063
 11
160.078
 21
399.938
 12
160.078
 22
400.062
 13
160.078
 23
400.062
  0
SOLID
  8
L3
 10
160.078
 20
399.938
 11
160.078
 21
400.062
 12
160.079
 22
399.938
 13
160.079
 23
399.938
  0
SOLID
  8
L3
 10
160.078
 20
400.062
 11
160.079
 21
399.938
 12
160.079
 22
400.062
 13
160.079
 23
400.062
  0
SOLID
  8
L3
 10
160.079
 20
399.938
 11
160.079
 21
400.062
 12
160.079
 22
399.939
 13
160.079
 23
399.939
  0
SOLID
  8
L3
 10
160.079
 20
400.062
 11
160.079
 21
399.939
 12
160.079
 22
400.061
 13
160.079
 23
400.061
  0
SOLID
  8
L3
 10
160.079
 20
399.939
 11
160.079
 21
400.061
 12
160.08
 22
399.94
 13
160.08
 23
399.94
  0
SOLID
  8
L3
 10
160.079
 20
400.061
 11
160.08
 21
399.94
 12
160.08
 22
400.06
 13
160.08
 23
400.06
  0
SOLID
  8
L3
 10
160.08
 20
399.94
 11
160.08
 21
400.06
 12
160.08
 22
399.941
 13
160.08
 23
399.941
  0
SOLID
  8
L3
 10
160.08
 20
400.06
 11
160.08
 21
399.941
 12
160.08
 22
400.059
 13
160.08
 23
400.059
  0
SOLID
  8
L3
 10
160.08
 20
399.941
 11
160.08
 21
400.059
 12
160.081
 22
399.941
 13
160.081
 23
399.941
  0
SOLID
  8
L3
 10
160.08
 20
400.059
 11
160.081
 21
399.941
 12
160.081
 22
400.059
 13
160.081
 23
400.059
  0
SOLID
  8
L3
 10
160.081
 20
399.941
 11
160.081
 21
400.059
 12
160.081
 22
399.942
 13
160.081
 23
399.942
  0
SOLID
  8
L3
 10
160.081
 20
400.059
 11
160.081
 21
399.942
 12
160.081
 22
400.058
 13
160.081
 23
400.058
  0
SOLID
  8
L3
 10
160.081
 20
399.942
 11
160.081
 21
400.058
 12
160.083
 22
399.944
 13
160.083
 23
399.944
  0
SOLID
  8
L3
 10
160.081
 20
400.058
 11
160.083
 21
399.944
 12
160.083
 22
400.056
 13
160.083
 23
400.056
  0
SOLID
  8
L3
 10
160.083
 20
399.944
 11
160.083
 21
400.056
 12
160.083
 22
399.945
 13
160.083
 23
399.945
  0
SOLID
  8
L3
 10
160.083
 20
400.056
 11
160.083
 21
399.945
 12
160.083
 22
400.055
 13
160.083
 23
400.055
  0
SOLID
  8
L3
 10
160.083
 20
399.945
 11
160.083
 21
400.055
 12
160.085
 22
399.947
 13
160.085
 23
399.947
  0
SOLID
  8
L3
 10
160.083
 20
400.055
 11
160.085
 21
399.947
 12
160.085
 22
400.053
 13
160.085
 23
400.053
  0
SOLID
  8
L3
 10
160.085
 20
399.947
 11
160.085
 21
400.053
 12
160.085
 22
399.948
 13
160.085
 23
399.948
  0
SOLID
  8
L3
 10
160.085
 20
400.053
 11
160.085
 21
399.948
 12
160.085
 22
400.052
 13
160.085
 23
400.052
  0
SOLID
  8
L3
 10
160.085
 20
399.948
 11
160.085
 21
400.052
 12
160.086
 22
399.948
 13
160.086
 23
399.948
  0
SOLID
  8
L3
 10
160.085
 20
400.052
 11
160.086
 21
399.948
 12
160.086
 22
400.052
 13
160.086
 23
400.052
  0
SOLID
  8
L3
 10
160.086
 20
399.948
 11
160.086
 21
400.052
 12
160.086
 22
399.949
 13
160.086
 23
399.949
  0
SOLID
  8
L3
 10
160.086
 20
400.052
 11
160.086
 21
399.949
 12
160.086
 22
400.051
 13
160.086
 23
400.051
  0
SOLID
  8
L3
 10
160.086
 20
399.949
 11
160.086
 21
400.051
 12
160.087
 22
399.95
 13
160.087
 23
399.95
  0
SOLID
  8
L3
 10
160.086
 20
400.051
 11
160.087
 21
399.95
 12
160.087
 22
400.05
 13
160.087
 23
400.05
  0
SOLID
  8
L3
 10
160.087
 20
399.95
 11
160.087
 21
400.05
 12
160.087
 22
399.952
 13
160.087
 23
399.952
  0
SOLID
  8
L3
 10
160.087
 20
400.05
 11
160.087
 21
399.952
 12
160.087
 22
400.048
 13
160.087
 23
400.048
  0
SOLID
  8
L3
 10
160.087
 20
399.952
 11
160.087
 21
400.048
 12
160.088
 22
399.952
 13
160.088
 23
399.952
  0
SOLID
  8
L3
 10
160.087
 20
400.048
 11
160.088
 21
399.952
 12
160.088
 22
400.048
 13
160.088
 23
400.048
  0
SOLID
  8
L3
 10
160.088
 20
399.952
 11
160.088
 21
400.048
 12
160.088
 22
399.953
 13
160.088
 23
399.953
  0
SOLID
  8
L3
 10
160.088
 20
400.048
 11
160.088
 21
399.953
 12
160.088
 22
400.047
 13
160.088
 23
400.047
  0
SOLID
  8
L3
 10
160.088
 20
399.953
 11
160.088
 21
400.047
 12
160.089
 22
399.954
 13
160.089
 23
399.954
  0
SOLID
  8
L3
 10
160.088
 20
400.047
 11
160.089
 21
399.954
 12
160.089
 22
400.046
 13
160.089
 23
400.046
  0
SOLID
  8
L3
 10
160.089
 20
399.954
 11
160.089
 21
400.046
 12
160.089
 22
399.955
 13
160.089
 23
399.955
  0
SOLID
  8
L3
 10
160.089
 20
400.046
 11
160.089
 21
399.955
 12
160.089
 22
400.045
 13
160.089
 23
400.045
  0
SOLID
  8
L3
 10
160.089
 20
399.955
 11
160.089
 21
400.045
 12
160.09
 22
399.956
 13
160.09
 23
399.956
  0
SOLID
  8
L3
 10
160.089
 20
400.045
 11
160.09
 21
399.956
 12
160.09
 22
400.044
 13
160.09
 23
400.044
  0
SOLID
  8
L3
 10
160.09
 20
399.956
 11
160.09
 21
400.044
 12
160.09
 22
399.957
 13
160.09
 23
399.957
  0
SOLID
  8
L3
 10
160.09
 20
400.044
 11
160.09
 21
399.957
 12
160.09
 22
400.043
 13
160.09
 23
400.043
  0
SOLID
  8
L3
 10
160.09
 20
399.957
 11
160.09
 21
400.043
 12
160.091
 22
399.958
 13
160.091
 23
399.958
  0
SOLID
  8
L3
 10
160.09
 20
400.043
 11
160.091
 21
399.958
 12
160.091
 22
400.042
 13
160.091
 23
400.042
  0
SOLID
  8
L3
 10
160.091
 20
399.958
 11
160.091
 21
400.042
 12
160.091
 22
399.959
 13
160.091
 23
399.959
  0
SOLID
  8
L3
 10
160.091
 20
400.042
 11
160.091
 21
399.959
 12
160.091
 22
400.041
 13
160.091
 23
400.041
  0
SOLID
  8
L3
 10
160.091
 20
399.959
 11
160.091
 21
400.041
 12
160.092
 22
399.96
 13
160.092
 23
399.96
  0
SOLID
  8
L3
 10
160.091
 20
400.041
 11
160.092
 21
399.96
 12
160.092
 22
400.04
 13
160.092
 23
400.04
  0
SOLID
  8
L3
 10
160.092
 20
399.96
 11
160.092
 21
400.04
 12
160.092
 22
399.962
 13
160.092
 23
399.962
  0
SOLID
  8
L3
 10
160.092
 20
400.04
 11
160.092
 21
399.962
 12
160.092
 22
400.038
 13
160.092
 23
400.038
  0
SOLID
  8
L3
 10
160.092
 20
399.962
 11
160.092
 21
400.038
 12
160.093
 22
399.963
 13
160.093
 23
399.963
  0
SOLID
  8
L3
 10
160.092
 20
400.038
 11
160.093
 21
399.963
 12
160.093
 22
400.037
 13
160.093
 23
400.037
  0
SOLID
  8
L3
 10
160.093
 20
399.963
 11
160.093
 21
400.037
 12
160.093
 22
399.964
 13
160.093
 23
399.964
  0
SOLID
  8
L3
 10
160.093
 20
400.037
 11
160.093
 21
399.964
 12
160.093
 22
400.036
 13
160.093
 23
400.036
  0
SOLID
  8
L3
 10
160.093
 20
399.964
 11
160.093
 21
400.036
 12
160.094
 22
399.965
 13
160.094
 23
399.965
  0
SOLID
  8
L3
 10
160.093
 20
400.036
 11
160.094
 21
399.965
 12
160.094
 22
400.035
 13
160.094
 23
400.035
  0
SOLID
  8
L3
 10
160.094
 20
399.965
 11
160.094
 21
400.035
 12
160.094
 22
399.967
 13
160.094
 23
399.967
  0
SOLID
  8
L3
 10
160.094
 20
400.035
 11
160.094
 21
399.967
 12
160.094
 22
400.033
 13
160.094
 23
400.033
  0
SOLID
  8
L3
 10
160.094
 20
399.967
 11
160.094
 21
400.033
 12
160.095
 22
399.967
 13
160.095
 23
399.967
  0
SOLID
  8
L3
 10
160.094
 20
400.033
 11
160.095
 21
399.967
 12
160.095
 22
400.033
 13
160.095
 23
400.033
  0
SOLID
  8
L3
 10
160.095
 20
399.967
 11
160.095
 21
400.033
 12
160.095
 22
399.97
 13
160.095
 23
399.97
  0
SOLID
  8
L3
 10
160.095
 20
400.033
 11
160.095
 21
399.97
 12
160.095
 22
400.03
 13
160.095
 23
400.03
  0
SOLID
  8
L3
 10
160.095
 20
399.97
 11
160.095
 21
400.03
 12
160.096
 22
399.971
 13
160.096
 23
399.971
  0
SOLID
  8
L3
 10
160.095
 20
400.03
 11
160.096
 21
399.971
 12
160.096
 22
400.029
 13
160.096
 23
400.029
  0
SOLID
  8
L3
 10
160.096
 20
399.971
 11
160.096
 21
400.029
 12
160.096
 22
399.973
 13
160.096
 23
399.973
  0
SOLID
  8
L3
 10
160.096
 20
400.029
 11
160.096
 21
399.973
 12
160.096
 22
400.027
 13
160.096
 23
400.027
  0
SOLID
  8
L3
 10
160.096
 20
399.973
 11
160.096
 21
400.027
 12
160.097
 22
399.974
 13
160.097
 23
399.974
  0
SOLID
  8
L3
 10
160.096
 20
400.027
 11
160.097
 21
399.974
 12
160.097
 22
400.026
 13
160.097
 23
400.026
  0
SOLID
  8
L3
 10
160.097
 20
399.974
 11
160.097
 21
400.026
 12
160.097
 22
399.978
 13
160.097
 23
399.978
  0
SOLID
  8
L3
 10
160.097
 20
400.026
 11
160.097
 21
399.978
 12
160.097
 22
400.022
 13
160.097
 23
400.022
  0
SOLID
  8
L3
 10
160.097
 20
399.978
 11
160.097
 21
400.022
 12
160.098
 22
399.978
 13
160.098
 23
399.978
  0
SOLID
  8
L3
 10
160.097
 20
400.022
 11
160.098
 21
399.978
 12
160.098
 22
400.022
 13
160.098
 23
400.022
  0
SOLID
  8
L3
 10
160.098
 20
399.978
 11
160.098
 21
400.022
 12
160.098
 22
399.983
 13
160.098
 23
399.983
  0
SOLID
  8
L3
 10
160.098
 20
400.022
 11
160.098
 21
399.983
 12
160.098
 22
400.017
 13
160.098
 23
400.017
  0
SOLID
  8
L3
 10
160.098
 20
399.983
 11
160.098
 21
400.017
 12
160.099
 22
399.983
 13
160.099
 23
399.983
  0
SOLID
  8
L3
 10
160.098
 20
400.017
 11
160.099
 21
399.983
 12
160.099
 22
400.017
 13
160.099
 23
400.017
  0
SOLID
  8
L3
 10
160.099
 20
399.983
 11
160.099
 21
400.017
 12
160.099
 22
399.99
 13
160.099
 23
399.99
  0
SOLID
  8
L3
 10
160.099
 20
400.017
 11
160.099
 21
399.99
 12
160.099
 22
400.01
 13
160.099
 23
400.01
  0
SOLID
  8
L3
 10
160.099
 20
399.99
 11
160.099
 21
400.01
 12
160.1
 22
399.99
 13
160.1
 23
399.99
  0
SOLID
  8
L3
 10
160.099
 20
400.01
 11
160.1
 21
399.99
 12
160.1
 22
400.01
 13
160.1
 23
400.01
  0
SOLID
  8
L3
 10
-80.01
 20
400.099
 11
-80.0
 21
399.9
 12
-80.01
 22
400.1
 13
-80.01
 23
400.1
  0
SOLID
  8
L3
 10
-80.017
 20
399.902
 11
-80.022
 21
399.903
 12
-80.022
 22
399.902
 13
-80.022
 23
399.902
  0
SOLID
  8
L3
 10
-80.03
 20
399.905
 11
-80.033
 21
399.906
 12
-80.033
 22
399.905
 13
-80.033
 23
399.905
  0
SOLID
  8
L3
 10
-80.047
 20
399.912
 11
-80.048
 21
399.913
 12
-80.048
 22
399.912
 13
-80.048
 23
399.912
  0
SOLID
  8
L3
 10
-80.051
 20
399.914
 11
-80.052
 21
399.915
 12
-80.052
 22
399.914
 13
-80.052
 23
399.914
  0
SOLID
  8
L3
 10
-80.058
 20
399.919
 11
-80.059
 21
399.92
 12
-80.059
 22
399.919
 13
-80.059
 23
399.919
  0
SOLID
  8
L3
 10
-80.061
 20
399.921
 11
-80.062
 21
399.922
 12
-80.062
 22
399.921
 13
-80.062
 23
399.921
  0
SOLID
  8
L3
 10
-80.068
 20
399.927
 11
-80.069
 21
399.928
 12
-80.069
 22
399.927
 13
-80.069
 23
399.927
  0
SOLID
  8
L3
 10
-80.07
 20
399.929
 11
-80.071
 21
399.93
 12
-80.071
 22
399.929
 13
-80.071
 23
399.929
  0
SOLID
  8
L3
 10
-80.072
 20
399.931
 11
-80.073
 21
399.932
 12
-80.073
 22
399.931
 13
-80.073
 23
399.931
  0
SOLID
  8
L3
 10
-80.078
 20
399.938
 11
-80.079
 21
399.939
 12
-80.079
 22
399.938
 13
-80.079
 23
399.938
  0
SOLID
  8
L3
 10
-80.081
 20
399.942
 11
-80.083
 21
399.945
 12
-80.083
 22
399.944
 13
-80.083
 23
399.944
  0
SOLID
  8
L3
 10
-80.086
 20
399.949
 11
-80.087
 21
399.952
 12
-80.087
 22
399.95
 13
-80.087
 23
399.95
  0
SOLID
  8
L3
 10
-80.089
 20
399.955
 11
-80.09
 21
399.957
 12
-80.09
 22
399.956
 13
-80.09
 23
399.956
  0
SOLID
  8
L3
 10
-80.092
 20
399.962
 11
-80.093
 21
399.964
 12
-80.093
 22
399.963
 13
-80.093
 23
399.963
  0
SOLID
  8
L3
 10
-80.095
 20
399.97
 11
-80.096
 21
399.973
 12
-80.096
 22
399.971
 13
-80.096
 23
399.971
  0
SOLID
  8
L3
 10
-80.098
 20
399.983
 11
-80.099
 21
399.99
 12
-80.099
 22
399.983
 13
-80.099
 23
399.983
  0
SOLID
  8
L4
 10
190.0
 20
607.0
 11
190.0
 21
625.0
 12
160.0
 22
607.0
 13
160.0
 23
607.0
  0
SOLID
  8
L4
 10
190.0
 20
625.0
 11
160.0
 21
607.0
 12
-80.0
 22
607.0
 13
-80.0
 23
607.0
  0
SOLID
  8
L4
 10
160.0
 20
607.0
 11
-80.0
 21
607.0
 12
160.0
 22
593.0
 13
160.0
 23
593.0
  0
SOLID
  8
L4
 10
-80.0
 20
607.0
 11
160.0
 21
593.0
 12
190.0
 22
575.0
 13
190.0
 23
575.0
  0
SOLID
  8
L4
 10
160.0
 20
593.0
 11
190.0
 21
575.0
 12
190.0
 22
593.0
 13
190.0
 23
593.0
  0
SOLID
  8
L4
 10
-110.0
 20
625.0
 11
-110.0
 21
607.0
 12
-80.0
 22
607.0
 13
-80.0
 23
607.0
  0
SOLID
  8
L4
 10
-110.0
 20
625.0
 11
-80.0
 21
607.0
 12
190.0
 22
625.0
 13
190.0
 23
625.0
  0
SOLID
  8
L4
 10
190.0
 20
575.0
 11
-80.0
 21
607.0
 12
-80.0
 22
593.0
 13
-80.0
 23
593.0
  0
SOLID
  8
L4
 10
190.0
 20
575.0
 11
-80.0
 21
593.0
 12
-110.0
 22
593.0
 13
-110.0
 23
593.0
  0
SOLID
  8
L4
 10
190.0
 20
575.0
 11
-110.0
 21
593.0
 12
-110.0
 22
575.0
 13
-110.0
 23
575.0
  0
SOLID
  8
L5
 10
0.0
 20
796.0
 11
0.0
 21
793.0
 12
190.0
 22
775.0
 13
190.0
 23
775.0
  0
SOLID
  8
L5
 10
0.0
 20
796.0
 11
190.0
 21
775.0
 12
80.0
 22
793.0
 13
80.0
 23
793.0
  0
SOLID
  8
L5
 10
0.0
 20
796.0
 11
80.0
 21
793.0
 12
80.0
 22
796.0
 13
80.0
 23
796.0
  0
SOLID
  8
L5
 10
-110.0
 20
793.0
 11
-110.0
 21
775.0
 12
190.0
 22
775.0
 13
190.0
 23
775.0
  0
SOLID
  8
L5
 10
-110.0
 20
793.0
 11
190.0
 21
775.0
 12
0.0
 22
793.0
 13
0.0
 23
793.0
  0
SOLID
  8
L5
 10
80.0
 20
793.0
 11
190.0
 21
775.0
 12
190.0
 22
793.0
 13
190.0
 23
793.0
  0
SOLID
  8
L5
 10
0.0
 20
804.0
 11
80.0
 21
804.0
 12
0.0
 22
807.0
 13
0.0
 23
807.0
  0
SOLID
  8
L5
 10
80.0
 20
804.0
 11
0.0
 21
807.0
 12
80.0
 22
807.0
 13
80.0
 23
807.0
  0
SOLID
  8
L5
 10
0.0
 20
807.0
 11
80.0
 21
807.0
 12
190.0
 22
825.0
 13
190.0
 23
825.0
  0
SOLID
  8
L5
 10
80.0
 20
807.0
 11
190.0
 21
825.0
 12
190.0
 22
807.0
 13
190.0
 23
807.0
  0
SOLID
  8
L5
 10
-110.0
 20
825.0
 11
-110.0
 21
807.0
 12
0.0
 22
807.0
 13
0.0
 23
807.0
  0
SOLID
  8
L5
 10
-110.0
 20
825.0
 11
0.0
 21
807.0
 12
190.0
 22
825.0
 13
190.0
 23
825.0
  0
SOLID
  8
L8
 10
-89.0
 20
1393.0
 11
-109.0
 21
1393.0
 12
-109.0
 22
1375.0
 13
-109.0
 23
1375.0
  0
SOLID
  8
L8
 10
-89.0
 20
1393.0
 11
-109.0
 21
1375.0
 12
-89.0
 22
1375.0
 13
-89.0
 23
1375.0
  0
SOLID
  8
L8
 10
189.0
 20
1393.0
 11
169.0
 21
1393.0
 12
169.0
 22
1375.0
 13
169.0
 23
1375.0
  0
SOLID
  8
L8
 10
189.0
 20
1393.0
 11
169.0
 21
1375.0
 12
189.0
 22
1375.0
 13
189.0
 23
1375.0
  0
SOLID
  8
L8
 10
79.5
 20
1400.75
 11
0.5
 21
1400.75
 12
0.5
 22
1399.25
 13
0.5
 23
1399.25
  0
SOLID
  8
L8
 10
79.5
 20
1400.75
 11
0.5
 21
1399.25
 12
79.5
 22
1399.25
 13
79.5
 23
1399.25
  0
SOLID
  8
L8
 10
-109.0
 20
1425.0
 11
-109.0
 21
1407.0
 12
-89.0
 22
1407.0
 13
-89.0
 23
1407.0
  0
SOLID
  8
L8
 10
-109.0
 20
1425.0
 11
-89.0
 21
1407.0
 12
-89.0
 22
1425.0
 13
-89.0
 23
1425.0
  0
SOLID
  8
L8
 10
169.0
 20
1425.0
 11
169.0
 21
1407.0
 12
189.0
 22
1407.0
 13
189.0
 23
1407.0
  0
SOLID
  8
L8
 10
169.0
 20
1425.0
 11
189.0
 21
1407.0
 12
189.0
 22
1425.0
 13
189.0
 23
1425.0
  0
SOLID
  8
L7
 10
-90.0
 20
1192.0
 11
-108.0
 21
1192.0
 12
-108.0
 22
1176.0
 13
-108.0
 23
1176.0
  0
SOLID
  8
L7
 10
-90.0
 20
1192.0
 11
-108.0
 21
1176.0
 12
-90.0
 22
1176.0
 13
-90.0
 23
1176.0
  0
SOLID
  8
L7
 10
188.0
 20
1192.0
 11
170.0
 21
1192.0
 12
170.0
 22
1176.0
 13
170.0
 23
1176.0
  0
SOLID
  8
L7
 10
188.0
 20
1192.0
 11
170.0
 21
1176.0
 12
188.0
 22
1176.0
 13
188.0
 23
1176.0
  0
SOLID
  8
L7
 10
-90.0
 20
1224.0
 11
-108.0
 21
1224.0
 12
-108.0
 22
1208.0
 13
-108.0
 23
1208.0
  0
SOLID
  8
L7
 10
-90.0
 20
1224.0
 11
-108.0
 21
1208.0
 12
-90.0
 22
1208.0
 13
-90.0
 23
1208.0
  0
SOLID
  8
L7
 10
188.0
 20
1224.0
 11
170.0
 21
1224.0
 12
170.0
 22
1208.0
 13
170.0
 23
1208.0
  0
SOLID
  8
L7
 10
188.0
 20
1224.0
 11
170.0
 21
1208.0
 12
188.0
 22
1208.0
 13
188.0
 23
1208.0
  0
SOLID
  8
L9
 10
-110.0
 20
1575.0
 11
-88.0
 21
1575.0
 12
-110.0
 22
1735.0
 13
-110.0
 23
1735.0
  0
SOLID
  8
L9
 10
-88.0
 20
1575.0
 11
-110.0
 21
1735.0
 12
-88.0
 22
1625.0
 13
-88.0
 23
1625.0
  0
SOLID
  8
L9
 10
-110.0
 20
1735.0
 11
-88.0
 21
1625.0
 12
-23.0
 22
1735.0
 13
-23.0
 23
1735.0
  0
SOLID
  8
L9
 10
-88.0
 20
1625.0
 11
-23.0
 21
1735.0
 12
-23.0
 22
1655.0
 13
-23.0
 23
1655.0
  0
SOLID
  8
L9
 10
85.0
 20
1655.0
 11
85.0
 21
1735.0
 12
45.0
 22
1625.0
 13
45.0
 23
1625.0
  0
SOLID
  8
L9
 10
85.0
 20
1735.0
 11
45.0
 21
1625.0
 12
35.0
 22
1625.0
 13
35.0
 23
1625.0
  0
SOLID
  8
L9
 10
45.0
 20
1625.0
 11
35.0
 21
1625.0
 12
45.0
 22
1605.0
 13
45.0
 23
1605.0
  0
SOLID
  8
L9
 10
35.0
 20
1625.0
 11
45.0
 21
1605.0
 12
35.0
 22
1605.0
 13
35.0
 23
1605.0
  0
SOLID
  8
L9
 10
45.0
 20
1605.0
 11
35.0
 21
1605.0
 12
80.0
 22
1595.0
 13
80.0
 23
1595.0
  0
SOLID
  8
L9
 10
35.0
 20
1605.0
 11
80.0
 21
1595.0
 12
0.0
 22
1605.0
 13
0.0
 23
1605.0
  0
SOLID
  8
L9
 10
80.0
 20
1595.0
 11
0.0
 21
1605.0
 12
0.0
 22
1595.0
 13
0.0
 23
1595.0
  0
SOLID
  8
L9
 10
-5.0
 20
1735.0
 11
-5.0
 21
1655.0
 12
35.0
 22
1625.0
 13
35.0
 23
1625.0
  0
SOLID
  8
L9
 10
-5.0
 20
1735.0
 11
35.0
 21
1625.0
 12
85.0
 22
1735.0
 13
85.0
 23
1735.0
  0
SOLID
  8
L9
 10
45.0
 20
1605.0
 11
80.0
 21
1595.0
 12
80.0
 22
1605.0
 13
80.0
 23
1605.0
  0
SOLID
  8
L9
 10
168.0
 20
1625.0
 11
168.0
 21
1575.0
 12
190.0
 22
1575.0
 13
190.0
 23
1575.0
  0
SOLID
  8
L9
 10
168.0
 20
1625.0
 11
190.0
 21
1575.0
 12
190.0
 22
1735.0
 13
190.0
 23
1735.0
  0
SOLID
  8
L9
 10
168.0
 20
1625.0
 11
190.0
 21
1735.0
 12
103.0
 22
1735.0
 13
103.0
 23
1735.0
  0
SOLID
  8
L9
 10
168.0
 20
1625.0
 11
103.0
 21
1735.0
 12
103.0
 22
1655.0
 13
103.0
 23
1655.0
  0
SOLID
  8
L10
 10
-110.0
 20
1800.75
 11
-110.0
 21
1799.25
 12
190.0
 22
1799.25
 13
190.0
 23
1799.25
  0
SOLID
  8
L10
 10
-110.0
 20
1800.75
 11
190.0
 21
1799.25
 12
190.0
 22
1800.75
 13
190.0
 23
1800.75
  0
SOLID
  8
L11
 10
-110.0
 20
2135.0
 11
-110.0
 21
1975.0
 12
190.0
 22
1975.0
 13
190.0
 23
1975.0
  0
SOLID
  8
L11
 10
-110.0
 20
2135.0
 11
190.0
 21
1975.0
 12
190.0
 22
2135.0
 13
190.0
 23
2135.0
  0
ENDSEC
  0
EOF
